<svg width="36" height="54" viewBox="0 0 36 54" fill="none" xmlns="http://www.w3.org/2000/svg">
<path d="M33.8965 14H2.10352C1.51243 14 1.05032 14.51 1.10836 15.0982L4.3913 48.3712C4.43137 48.7774 4.71427 49.1185 5.10603 49.2329L17.7196 52.9181C17.9027 52.9716 18.0973 52.9716 18.2804 52.9181L30.894 49.2329C31.2857 49.1185 31.5686 48.7774 31.6087 48.3712L34.8916 15.0982C34.9497 14.51 34.4876 14 33.8965 14Z" fill="#AEC5FF" stroke="#2550DA" stroke-width="2"/>
<path d="M9.5 23.5V21.75H7.53205L7.76199 23.7045L9.5 23.5ZM10.5 32L8.76199 32.2045L8.94381 33.75H10.5V32ZM26 32L27.7413 32.1741L27.9337 30.25H26V32ZM25 42L25.4808 43.6827L26.6231 43.3563L26.7413 42.1741L25 42ZM18 44L17.5192 45.6827L18 45.82L18.4808 45.6827L18 44ZM11 42L9.25868 42.1741L9.3769 43.3563L10.5192 43.6827L11 42ZM28.5 21.75H9.5V25.25H28.5V21.75ZM7.76199 23.7045L8.76199 32.2045L12.238 31.7955L11.238 23.2955L7.76199 23.7045ZM10.5 33.75H26V30.25H10.5V33.75ZM24.2587 31.8259L23.2587 41.8259L26.7413 42.1741L27.7413 32.1741L24.2587 31.8259ZM24.5192 40.3173L17.5192 42.3173L18.4808 45.6827L25.4808 43.6827L24.5192 40.3173ZM18.4808 42.3173L11.4808 40.3173L10.5192 43.6827L17.5192 45.6827L18.4808 42.3173ZM12.7413 41.8259L12.2413 36.8259L8.75868 37.1741L9.25868 42.1741L12.7413 41.8259Z" fill="#2550DA"/>
<path d="M4.792 11H6.684V8.162H8.818V11H10.71V3.85H8.818V6.512H6.684V3.85H4.792V11ZM13.544 11H15.436V5.434H17.328V3.85H11.652V5.434H13.544V11ZM18.279 11H20.017V8.888C20.017 8.162 19.863 7.051 19.775 6.336H19.819L20.391 8.008L21.381 10.417H22.085L23.075 8.008L23.669 6.336H23.713C23.625 7.051 23.471 8.162 23.471 8.888V11H25.231V3.85H23.273L22.195 6.82L21.799 7.986H21.755L21.359 6.82L20.237 3.85H18.279V11ZM26.7091 11H31.3071V9.416H28.6011V3.85H26.7091V11Z" fill="#2550DA"/>
</svg>
