<svg width="24" height="23" viewBox="0 0 24 23" fill="none" xmlns="http://www.w3.org/2000/svg">
<path fill-rule="evenodd" clip-rule="evenodd" d="M7.0531 0.0688446C8.33306 0.0135374 8.74209 0 12.0011 0H11.9974C15.2574 0 15.6649 0.0135374 16.9449 0.0688446C18.2225 0.124419 19.0949 0.316613 19.86 0.598493C20.6499 0.889457 21.3174 1.27892 21.9849 1.91304C22.6525 2.54671 23.0625 3.1827 23.37 3.93251C23.665 4.65738 23.8675 5.48574 23.9275 6.69938C23.985 7.91543 24 8.30391 24 11.4C24 14.496 23.985 14.8836 23.9275 16.0996C23.8675 17.3127 23.665 18.1414 23.37 18.8665C23.0625 19.6161 22.6525 20.252 21.9849 20.8857C21.3182 21.5198 20.6497 21.9103 19.8608 22.2015C19.0972 22.4834 18.2242 22.6755 16.9467 22.7311C15.6667 22.7865 15.2589 22.8 11.9996 22.8C8.74088 22.8 8.33213 22.7865 7.05206 22.7311C5.77481 22.6755 4.90256 22.4834 4.13906 22.2015C3.35025 21.9103 2.68078 21.5198 2.01403 20.8857C1.34672 20.252 0.93675 19.6161 0.63 18.8662C0.333469 18.1414 0.13125 17.313 0.0724688 16.0994C0.0145313 14.8834 0 14.496 0 11.4C0 8.30391 0.0149998 7.91516 0.0722811 6.69911C0.12975 5.48601 0.33225 4.65738 0.629719 3.93224C0.937219 3.1827 1.34728 2.54671 2.01478 1.91304C2.68181 1.27919 3.35128 0.889635 4.14056 0.598493C4.90359 0.316613 5.77556 0.124419 7.0531 0.0688446ZM12.0012 2.05438L11.6012 2.05429L11.5863 2.05429L11.2641 2.0542L10.9247 2.05438V2.05153C8.68819 2.05394 8.25909 2.06818 7.15209 2.11565C5.98209 2.16678 5.34685 2.35202 4.92384 2.50877C4.36388 2.71584 3.96384 2.9629 3.54384 3.36189C3.12384 3.76089 2.86331 4.14082 2.64581 4.67288C2.48156 5.07472 2.28609 5.67793 2.23256 6.78942C2.17509 7.99122 2.16356 8.35031 2.16356 11.3945C2.16356 14.4388 2.17509 14.7999 2.23256 16.0016C2.28581 17.1131 2.48156 17.7164 2.64581 18.1177C2.86387 18.6499 3.12384 19.029 3.54384 19.428C3.96384 19.8269 4.36388 20.074 4.92384 20.2806C5.34713 20.4367 5.98209 20.6224 7.15209 20.6737C8.41716 20.7283 8.79694 20.7402 12.0012 20.7402C15.2052 20.7402 15.5852 20.7283 16.8503 20.6737C18.0203 20.6229 18.6558 20.4376 19.0782 20.2809C19.6385 20.0743 20.0373 19.8272 20.4573 19.4282C20.8773 19.0295 21.1378 18.6506 21.3553 18.1187C21.5196 17.7173 21.715 17.114 21.7686 16.0026C21.826 14.8008 21.8385 14.4398 21.8385 11.3974C21.8385 8.35503 21.826 7.99407 21.7686 6.79227C21.7153 5.68078 21.5196 5.07757 21.3553 4.67617C21.1373 4.14421 20.8773 3.76418 20.4573 3.36519C20.0375 2.96619 19.6383 2.71914 19.0782 2.51251C18.6552 2.35648 18.0203 2.17078 16.8503 2.11993C15.585 2.06534 15.2052 2.05438 12.0012 2.05438Z" fill="#E4E9FA"/>
<path d="M18.4068 3.94729C17.6118 3.94729 16.9667 4.55932 16.9667 5.31483C16.9667 6.07007 17.6118 6.68282 18.4068 6.68282C19.2018 6.68282 19.8468 6.07007 19.8468 5.31483C19.8468 4.55959 19.2018 3.94729 18.4068 3.94729Z" fill="#E4E9FA"/>
<path fill-rule="evenodd" clip-rule="evenodd" d="M5.83866 11.4C5.83866 8.16702 8.59772 5.54577 12.0009 5.54568C15.4043 5.54568 18.1628 8.16694 18.1628 11.4C18.1628 14.6332 15.4044 17.2533 12.0012 17.2533C8.59791 17.2533 5.83866 14.6332 5.83866 11.4ZM16.0011 11.4C16.0011 9.30122 14.2101 7.59997 12.001 7.59997C9.79172 7.59997 8.001 9.30122 8.001 11.4C8.001 13.4985 9.79172 15.1999 12.001 15.1999C14.2101 15.1999 16.0011 13.4985 16.0011 11.4Z" fill="#E4E9FA"/>
</svg>
