<svg width="33" height="49" viewBox="0 0 33 49" fill="none" xmlns="http://www.w3.org/2000/svg">
<path d="M0.75 8.5C0.75 4.21979 4.21979 0.75 8.5 0.75H16.5H24.5C28.7802 0.75 32.25 4.21979 32.25 8.5C32.25 12.7802 28.7802 16.25 24.5 16.25H16.5H8.5C4.21979 16.25 0.75 12.7802 0.75 8.5Z" fill="#AEC5FF" stroke="#2550DA" stroke-width="1.5"/>
<path d="M0.75 24.5C0.75 20.2198 4.21979 16.75 8.5 16.75H16.25V32.25H8.5C4.21979 32.25 0.75 28.7802 0.75 24.5Z" fill="#AEC5FF" stroke="#2550DA" stroke-width="1.5"/>
<circle cx="24.5" cy="24.5" r="7.75" fill="#AEC5FF" stroke="#2550DA" stroke-width="1.5"/>
<path d="M0.75 40.5C0.75 36.2198 4.21979 32.75 8.5 32.75H16.25V40.5C16.25 44.7802 12.7802 48.25 8.5 48.25C4.21979 48.25 0.75 44.7802 0.75 40.5Z" fill="#AEC5FF" stroke="#2550DA" stroke-width="1.5"/>
</svg>
