<svg width="60" height="46" viewBox="0 0 60 46" fill="none" xmlns="http://www.w3.org/2000/svg">
<path d="M24.3436 34.3611C23.7621 34.3611 22.9956 34.7576 22.652 35.2598L17.1542 43.2157C16.8106 43.6915 17.022 44.1673 17.6035 44.1673H32.511C33.0925 44.1673 33.304 43.7179 32.9868 43.2157L27.6476 35.3126C27.304 34.8104 26.5639 34.3875 25.956 34.3875H24.3436V34.3611Z" fill="white"/>
<path d="M32.5375 45.1982H17.63C17.0485 45.1982 16.5727 44.881 16.3348 44.4317C16.0969 43.9823 16.1498 43.3744 16.4934 42.8986L21.9912 34.9427C22.5198 34.1761 23.5771 33.8325 24.3436 33.8325H25.9824C26.8811 33.8325 27.859 34.3083 28.3348 35.0219L33.674 42.8457C34.0177 43.348 34.0705 43.9823 33.8062 44.4581C33.5948 44.881 33.119 45.1982 32.5375 45.1982ZM18.0529 43.4801H32.1938L27.0132 35.8942C26.8546 35.6563 26.3525 35.4184 26.0088 35.4184H24.3701C23.9736 35.4184 23.4978 35.6299 23.3392 35.8413L18.0529 43.4801Z" fill="#2550DA"/>
<path d="M48.37 35.9209C48.37 36.5024 47.8943 37.0046 47.2864 37.0046H2.11455C1.53305 37.0046 1.03085 36.5288 1.03085 35.9209V1.61252C1.03085 1.03102 1.50662 0.528809 2.11455 0.528809H47.2864C47.8679 0.528809 48.37 1.00459 48.37 1.61252V35.9209Z" fill="white"/>
<path d="M48.8987 36.1851C48.8987 37.2159 48.0529 38.0617 47.0221 38.0617H1.87665C0.845809 38.0617 0 37.2159 0 36.1851V1.87666C0 0.845825 0.845809 0 1.87665 0H47.0221C48.0529 0 48.8987 0.845825 48.8987 1.87666V36.1851ZM47.3128 1.85022C47.3128 1.69163 47.1806 1.5859 47.0485 1.5859H1.85022C1.69163 1.5859 1.5859 1.71806 1.5859 1.85022V36.2115C1.5859 36.3701 1.71806 36.4758 1.85022 36.4758H47.0485C47.2071 36.4758 47.3128 36.3436 47.3128 36.2115V1.85022Z" fill="#2550DA"/>
<path d="M45.1983 28.5198C45.1983 29.1013 44.7225 29.6035 44.1146 29.6035H5.81499C5.23349 29.6035 4.73129 29.1278 4.73129 28.5198V5.28633C4.73129 4.70483 5.20706 4.20264 5.81499 4.20264H44.1146C44.6961 4.20264 45.1983 4.6784 45.1983 5.28633V28.5198Z" fill="#AEC5FF"/>
<path d="M45.7269 28.2556C45.7269 29.2864 44.8811 30.1322 43.8502 30.1322H5.57706C4.54622 30.1322 3.70041 29.2864 3.70041 28.2556V5.04854C3.70041 4.0177 4.54622 3.17188 5.57706 3.17188H43.8502C44.8811 3.17188 45.7269 4.0177 45.7269 5.04854V28.2556ZM5.65636 4.75778C5.49777 4.75778 5.28631 4.88995 5.28631 5.04854V28.1763C5.28631 28.3349 5.49777 28.5728 5.65636 28.5728H43.8238C43.9823 28.5728 44.141 28.3349 44.141 28.1763V5.04854C44.141 4.88995 43.9823 4.75778 43.8238 4.75778H5.65636Z" fill="#2550DA"/>
<path d="M59.2071 42.2644C59.2071 42.8459 58.7313 43.3481 58.1234 43.3481H40.4406C39.8591 43.3481 39.3569 42.8723 39.3569 42.2644V10.0705C39.3569 9.48903 39.8326 8.98682 40.4406 8.98682H58.1234C58.7049 8.98682 59.2071 9.4626 59.2071 10.0705V42.2644Z" fill="white"/>
<path d="M60 42C60 43.0308 59.1542 43.8766 58.1234 43.8766H40.467C39.4361 43.8766 38.5903 43.0308 38.5903 42V9.80611C38.5903 8.77527 39.4361 7.92944 40.467 7.92944H58.1234C59.1542 7.92944 60 8.77527 60 9.80611V42ZM58.6784 9.77966C58.6784 9.62107 58.5463 9.51535 58.4141 9.51535H40.7049C40.5463 9.51535 40.4406 9.64751 40.4406 9.77966V42.0264C40.4406 42.185 40.5727 42.2907 40.7049 42.2907H58.4141C58.5727 42.2907 58.6784 42.1585 58.6784 42.0264V9.77966Z" fill="#2550DA"/>
<path d="M57.6211 36.4493C57.6211 37.0308 57.1454 37.5329 56.5375 37.5329H43.0837C42.5022 37.5329 42 37.0572 42 36.4493V16.1232C42 15.5417 42.4758 15.0396 43.0837 15.0396H56.5375C57.119 15.0396 57.6211 15.5153 57.6211 16.1232V36.4493Z" fill="#AEC5FF"/>
<path d="M58.1498 36.4493C58.1498 37.4802 57.304 38.326 56.2732 38.326H42.8458C41.815 38.326 40.9692 37.4802 40.9692 36.4493V15.8855C40.9692 14.8546 41.815 14.0088 42.8458 14.0088H56.2732C57.304 14.0088 58.1498 14.8546 58.1498 15.8855V36.4493ZM56.5639 15.859C56.5639 15.7004 56.4317 15.5947 56.2996 15.5947H42.8194C42.6608 15.5947 42.5551 15.7269 42.5551 15.859V36.2114C42.5551 36.37 42.6872 36.4758 42.8194 36.4758H56.2996C56.4581 36.4758 56.5639 36.3436 56.5639 36.2114V15.859Z" fill="#2550DA"/>
<path d="M51.6212 12.9515H44.0881C43.6388 12.9515 43.2687 12.4758 43.2687 12.0264C43.2687 11.5771 43.6388 11.1013 44.0881 11.1013H51.6212C52.0705 11.1013 52.4406 11.5771 52.4406 12.0264C52.4141 12.4758 52.0705 12.9515 51.6212 12.9515Z" fill="#2550DA"/>
<path d="M54.185 12.5286C54.5792 12.5286 54.8987 12.2091 54.8987 11.815C54.8987 11.4208 54.5792 11.1013 54.185 11.1013C53.7909 11.1013 53.4714 11.4208 53.4714 11.815C53.4714 12.2091 53.7909 12.5286 54.185 12.5286Z" fill="#2550DA"/>
<path d="M49.5595 41.9208C50.2894 41.9208 50.8811 41.3291 50.8811 40.5992C50.8811 39.8693 50.2894 39.2776 49.5595 39.2776C48.8296 39.2776 48.2379 39.8693 48.2379 40.5992C48.2379 41.3291 48.8296 41.9208 49.5595 41.9208Z" fill="#2550DA"/>
</svg>
