<svg width="154" height="60" viewBox="0 0 154 60" fill="none" xmlns="http://www.w3.org/2000/svg">
<path d="M23.7421 0.692639C24.219 0.613687 24.7019 0.630305 25.1833 0.622728C25.3363 0.621264 25.4941 0.62814 25.6372 0.688946C25.4438 0.739819 25.2464 0.780889 25.0652 0.867545C24.756 1.01036 24.417 1.07269 24.1069 1.2141C23.8122 1.34406 23.5312 1.50145 23.2371 1.63064C22.8494 1.8321 22.4335 1.97497 22.0633 2.20909C21.2056 2.6439 20.4066 3.18052 19.5801 3.66773C19.3053 3.87747 19.0181 4.06982 18.7241 4.25147C18.1176 4.68545 17.5304 5.14541 16.921 5.57558C16.3978 6.01644 15.8402 6.41546 15.3283 6.87077C14.9383 7.16194 14.6055 7.51761 14.2223 7.81566C13.2816 8.64796 12.3767 9.52051 11.5031 10.422C10.873 11.1114 10.1624 11.7188 9.51884 12.3944C9.06104 12.8376 8.64586 13.3202 8.22238 13.7938C8.22085 13.7832 8.21779 13.7626 8.21626 13.752C8.57044 13.3202 8.84621 12.8315 9.16007 12.3701C10.0763 11.0574 11.0163 9.75851 12.0507 8.53539C12.2442 8.33476 12.4179 8.11656 12.5816 7.89161C12.7553 7.64985 12.9914 7.46298 13.1734 7.2288C13.5376 6.78036 13.9733 6.39955 14.3594 5.97085C14.786 5.56195 15.1989 5.13778 15.6497 4.75467C16.5547 3.97024 17.4794 3.20173 18.5077 2.58004C19.2404 2.08213 20.0448 1.70208 20.8507 1.33731C21.0289 1.29923 21.1896 1.20507 21.3671 1.16323C22.141 0.937455 22.9271 0.697287 23.7421 0.692639ZM46.1363 9.14651C46.2331 9.15943 46.2825 9.24915 46.3617 9.29633C47.6468 10.191 48.9196 11.1076 50.1201 12.1156C50.3614 12.3321 50.6097 12.5427 50.8779 12.7281C51.1407 12.9447 51.3654 13.2055 51.635 13.416C51.9047 13.6258 52.1332 13.8812 52.38 14.1168C53.2316 14.915 54.0146 15.7838 54.7587 16.6829C55.1359 17.1709 55.5342 17.643 55.8693 18.1621C56.2799 18.8333 56.7278 19.4863 57.0515 20.206C57.4888 21.0976 57.8247 22.0425 58.0372 23.0123C58.0768 23.0998 58.0205 23.2373 58.1171 23.2944C58.2611 23.9009 58.335 24.5212 58.4173 25.1376C58.4401 25.5914 58.4371 26.0466 58.466 26.5004C57.929 24.3874 56.9548 22.4126 55.8435 20.5459C55.2608 19.6185 54.672 18.6927 53.9949 17.8315C53.1295 16.5834 52.1354 15.4311 51.1483 14.2788C50.1551 13.1705 49.1244 12.0951 48.036 11.0795C47.5599 10.612 47.1212 10.1065 46.6299 9.65435C46.4539 9.49625 46.2955 9.32058 46.1363 9.14651ZM0.412598 33.4242C0.439268 33.5473 0.449924 33.6743 0.494077 33.7944C0.636555 34.1182 0.696723 34.4702 0.833075 34.7962C1.01817 35.4515 1.31672 36.0648 1.5833 36.6889C2.23539 38.0882 3.00392 39.4305 3.857 40.7167C4.16627 41.1157 4.39858 41.568 4.73988 41.9434C5.52443 43.0783 6.40189 44.1463 7.29535 45.1967C8.4501 46.5467 9.68716 47.8259 10.9813 49.0436C11.449 49.5134 11.8893 50.0119 12.3798 50.4596C12.5168 50.585 12.6403 50.7249 12.766 50.8626C12.6661 50.8541 12.6205 50.7493 12.5389 50.7105C11.0917 49.7041 9.66349 48.6635 8.33283 47.5066C7.96952 47.2619 7.67015 46.9442 7.34563 46.6538C6.95029 46.3506 6.62431 45.9705 6.25564 45.6369C5.36977 44.7681 4.53724 43.8422 3.78089 42.8587C3.22859 42.1988 2.78986 41.4562 2.33818 40.7273C1.81791 39.8015 1.37536 38.8271 1.07758 37.8062C0.93663 37.3912 0.882589 36.9542 0.749299 36.5376C0.623602 35.9629 0.552011 35.3777 0.481123 34.7948C0.481889 34.3363 0.439268 33.8811 0.412598 33.4242ZM49.7612 47.2285C50.0689 46.9206 50.3272 46.5672 50.6525 46.2768C50.657 46.384 50.5237 46.4037 50.4948 46.4964C49.2745 48.3815 47.9514 50.2058 46.4814 51.9047C46.2034 52.3151 45.8232 52.6396 45.5163 53.0273C44.7073 53.8718 43.8984 54.7201 42.9996 55.4718C42.5586 55.8686 42.081 56.2205 41.6247 56.599C40.4288 57.461 39.1644 58.2492 37.7765 58.7638C37.0469 59.08 36.2631 59.2662 35.4709 59.3216C35.0459 59.4198 34.6055 59.3749 34.1729 59.4023C33.7777 59.4684 33.38 59.3491 32.9801 59.4091C33.3571 59.2951 33.7456 59.2145 34.1006 59.0382C34.6459 58.8299 35.1852 58.6064 35.7131 58.3572C36.3964 58.0075 37.0964 57.6882 37.7621 57.3051C38.4355 56.862 39.1523 56.485 39.7966 56C40.2849 55.7333 40.6825 55.3403 41.1501 55.0446C43.5213 53.2918 45.7516 51.3475 47.7686 49.1956C48.4396 48.548 49.1153 47.9027 49.7612 47.2285Z" fill="#4066DF"/>
<path d="M114.301 24.7114C114.443 24.653 114.601 24.6674 114.753 24.6636C115.156 24.6689 115.56 24.6585 115.964 24.6683C116.06 24.6751 116.197 24.687 116.239 24.7961C116.281 24.9338 116.272 25.0831 116.279 25.2268C116.279 29.2132 116.279 33.2006 116.279 37.187C116.277 37.4111 116.292 37.639 116.247 37.8608C116.222 37.9879 116.076 38.0137 115.969 38.0129C115.538 38.0205 115.108 38.0107 114.678 38.0167C114.529 38.0092 114.357 38.0334 114.236 37.9296C114.154 37.8251 114.166 37.6889 114.164 37.5655C114.165 33.4013 114.164 29.2376 114.164 25.0731C114.167 24.9467 114.16 24.7712 114.301 24.7114ZM86.7941 24.6644C87.0013 24.5947 87.2266 24.6341 87.4427 24.6251C87.8237 24.6363 88.2075 24.6023 88.5875 24.6425C88.7559 24.6629 88.784 24.8574 88.7803 24.996C88.7825 27.2428 88.7803 29.4896 88.7818 31.7365C88.7834 32.4451 88.8166 33.1566 88.9425 33.8546C89.0435 34.3876 89.2377 34.9205 89.5955 35.3376C89.9542 35.7562 90.4731 36.0045 91.0044 36.1248C91.476 36.2423 91.9646 36.2649 92.4497 36.2831C93.2462 36.2634 94.0454 36.2136 94.8313 36.0756C94.8615 35.9175 94.8419 35.7562 94.8464 35.5973C94.8454 32.09 94.8473 28.5827 94.8454 25.0755C94.85 24.9551 94.8375 24.825 94.9015 24.7167C94.9896 24.6152 95.1338 24.6304 95.2567 24.6242C95.6856 24.6251 96.1164 24.6251 96.5471 24.6242C96.6663 24.6281 96.8105 24.6204 96.9013 24.7174C96.9716 24.8218 96.9547 24.9551 96.9618 25.0747C96.9601 28.7592 96.9618 32.4428 96.9609 36.1272C96.9601 36.5851 96.863 37.069 96.5613 37.4277C96.2455 37.8146 95.7496 38.0084 95.2638 38.0666C94.5331 38.1597 93.7953 38.2067 93.0584 38.2317C92.1239 38.2605 91.1797 38.2492 90.2621 38.0469C89.455 37.8782 88.658 37.5314 88.0756 36.9334C87.5467 36.4156 87.2167 35.7297 87.0179 35.0249C86.7426 34.0294 86.6774 32.9917 86.6667 31.9629C86.666 29.6667 86.6675 27.3707 86.666 25.0747C86.6727 24.9346 86.647 24.7424 86.7941 24.6644ZM124.574 26.3352C123.974 26.4336 123.414 26.731 122.982 27.1558C122.441 27.6735 122.105 28.367 121.895 29.0771C121.71 29.719 121.617 30.3859 121.604 31.0536C121.586 31.8894 121.638 32.729 121.801 33.5503C121.935 34.1915 122.175 34.8258 122.592 35.3392C123.018 35.8714 123.638 36.246 124.313 36.3611C125.141 36.5012 126.043 36.4527 126.785 36.0258C127.636 35.5337 128.164 34.6344 128.408 33.7055C128.699 32.57 128.733 31.3814 128.632 30.2186C128.565 29.4677 128.441 28.7054 128.1 28.0248C127.76 27.3169 127.15 26.7212 126.401 26.4638C125.814 26.2753 125.181 26.2413 124.574 26.3352ZM124.349 24.4479C125.276 24.3397 126.232 24.3942 127.126 24.6734C127.873 24.9066 128.563 25.3291 129.099 25.9013C129.77 26.6138 130.212 27.516 130.475 28.4518C130.805 29.6403 130.862 30.8863 130.802 32.1128C130.73 33.3694 130.487 34.6464 129.867 35.7562C129.412 36.5806 128.726 37.2869 127.883 37.717C126.973 38.187 125.932 38.3423 124.917 38.3172C123.777 38.3051 122.604 38.0145 121.689 37.3105C120.897 36.7138 120.344 35.847 120.015 34.922C119.593 33.7335 119.479 32.4601 119.49 31.2073C119.504 29.878 119.732 28.5252 120.351 27.3359C120.846 26.3434 121.64 25.4896 122.634 24.9846C123.169 24.7083 123.753 24.5297 124.349 24.4479ZM80.2784 21.3388C80.4217 21.2843 80.5865 21.2185 80.7252 21.329C80.77 21.4622 80.7767 21.6045 80.7806 21.7445C80.7814 22.7264 80.7776 23.7084 80.7822 24.6902C81.687 24.7167 82.5945 24.6909 83.501 24.7023C83.63 24.6894 83.7869 24.7643 83.7885 24.9113C83.8317 25.3411 83.806 25.7764 83.8053 26.208C83.8196 26.3442 83.7429 26.5161 83.5821 26.5024C82.6499 26.5252 81.7152 26.4873 80.7829 26.5206C80.7767 29.2436 80.7822 31.9666 80.7806 34.6897C80.7767 35.1196 80.8367 35.5844 81.1204 35.9274C81.4301 36.2702 81.92 36.3467 82.36 36.3559C83.0739 36.3415 83.7801 36.221 84.4902 36.1544C84.5153 36.1749 84.5654 36.2165 84.5896 36.237C84.6883 36.5466 84.7178 36.8736 84.7899 37.1901C84.8263 37.4057 84.8931 37.6291 84.8415 37.8472C84.7686 37.9274 84.664 37.9615 84.5661 37.9932C83.7316 38.2552 82.8485 38.3029 81.9807 38.318C81.1257 38.3097 80.1836 38.1901 79.5282 37.5905C78.8606 36.9394 78.6921 35.9592 78.6694 35.0667C78.6557 32.2156 78.6762 29.3641 78.6588 26.5131C78.0451 26.4972 77.4306 26.5176 76.8168 26.5047C76.6575 26.5206 76.5475 26.3608 76.5559 26.217C76.546 25.9113 76.5429 25.6053 76.5574 25.3003C76.5718 25.1178 76.725 24.9755 76.8995 24.9392C77.5261 24.8007 78.1574 24.6825 78.7831 24.5402C78.9182 23.7363 79.0389 22.93 79.1708 22.1254C79.1973 21.9967 79.2209 21.8438 79.3377 21.762C79.6153 21.5522 79.9628 21.4735 80.2784 21.3388ZM68.1434 19.9868C68.8347 19.9095 69.5326 19.9186 70.226 19.9663C71.4874 20.0738 72.7513 20.2987 73.9257 20.7862C74.0934 20.8619 74.2769 20.9164 74.4234 21.0331C74.5524 21.167 74.4826 21.3609 74.4256 21.5106C74.2413 21.9731 74.0865 22.4486 73.8909 22.9066C73.8514 23.0701 73.6685 23.0164 73.5585 22.9664C72.1444 22.3767 70.6174 22.0534 69.0842 22.0444C68.4523 22.0618 67.8006 22.1556 67.2461 22.4773C66.7393 22.7718 66.3176 23.2504 66.1734 23.8265C66.0148 24.4569 66.0839 25.1755 66.4784 25.7098C66.8858 26.2656 67.4949 26.6274 68.1018 26.9301C69.5257 27.613 71.0218 28.136 72.4381 28.8371C73.4644 29.3563 74.4303 30.0944 74.9817 31.1249C75.5112 32.0658 75.5673 33.1961 75.4148 34.2437C75.229 35.5178 74.4507 36.6813 73.3607 37.3642C72.3166 38.0243 71.0642 38.2741 69.8443 38.315C67.8341 38.3514 65.7872 38.0743 63.9316 37.2748C63.7246 37.1772 63.5129 37.0878 63.3172 36.9698C63.1519 36.8775 63.1708 36.6624 63.2383 36.514C63.4264 36.0863 63.6101 35.6579 63.7936 35.2287C63.8444 35.1219 63.8877 34.9955 64.0061 34.9455C64.1236 34.9266 64.2306 34.9841 64.3367 35.0295C65.4443 35.5383 66.624 35.8865 67.8273 36.0802C68.8718 36.2445 69.9544 36.2665 70.9852 36.009C71.7067 35.8206 72.4236 35.4436 72.8317 34.7986C73.246 34.1286 73.3029 33.2725 73.0798 32.5276C72.8099 31.7342 72.1239 31.1748 71.4184 30.7705C70.1258 30.04 68.686 29.6304 67.3507 28.9901C66.4426 28.5661 65.5452 28.0642 64.8595 27.3207C64.3034 26.7341 63.9424 25.9634 63.8679 25.158C63.7785 24.2685 63.8832 23.3449 64.2625 22.5296C64.6485 21.6976 65.3116 20.9936 66.1294 20.5726C66.7531 20.2448 67.4471 20.0724 68.1434 19.9868ZM114.871 19.6734C115.262 19.5727 115.701 19.6272 116.032 19.8687C116.464 20.1624 116.697 20.6945 116.655 21.2109C116.635 21.9225 116.009 22.5788 115.284 22.5734C114.507 22.6167 113.805 21.9065 113.82 21.1375C113.788 20.4857 114.241 19.8505 114.871 19.6734ZM105.01 26.4192C104.155 26.5546 103.359 27.0263 102.859 27.7349C102.16 28.7166 101.918 29.9446 101.882 31.1285C101.849 32.2763 101.91 33.47 102.408 34.5247C102.722 35.209 103.279 35.7987 103.993 36.0681C104.855 36.4072 105.806 36.3974 106.711 36.2801C107.295 36.1931 107.891 36.1128 108.443 35.8917C108.452 32.8607 108.449 29.8295 108.444 26.7984C107.714 26.5562 106.952 26.4094 106.183 26.376C105.79 26.3405 105.396 26.3571 105.01 26.4192ZM108.564 19.4379C108.673 19.3946 108.794 19.4047 108.911 19.4009C109.341 19.4039 109.771 19.4001 110.201 19.4015C110.315 19.4092 110.469 19.394 110.537 19.5129C110.595 19.6409 110.581 19.7884 110.59 19.9269C110.589 25.4025 110.59 30.8788 110.59 36.3543C110.586 36.5821 110.601 36.8115 110.576 37.0394C110.566 37.209 110.436 37.3552 110.279 37.4118C109.441 37.8009 108.542 38.0629 107.623 38.1666C106.565 38.2908 105.494 38.3702 104.43 38.2809C103.366 38.187 102.308 37.8034 101.51 37.0794C100.742 36.3922 100.256 35.4377 100.008 34.4473C99.7546 33.4397 99.6744 32.3959 99.6895 31.3587C99.7029 30.4148 99.8408 29.4715 100.106 28.5646C100.42 27.532 100.964 26.5524 101.758 25.8098C102.423 25.1921 103.244 24.7288 104.137 24.5411C105.053 24.3321 106.001 24.3903 106.929 24.4629C107.446 24.5055 107.946 24.6425 108.445 24.7742C108.453 23.1087 108.443 21.4426 108.45 19.777C108.459 19.6605 108.448 19.5068 108.564 19.4379Z" fill="#252525"/>
<path d="M28.604 0.0677662C29.3093 -0.0651791 30.0322 0.0230064 30.736 0.114947C31.5824 0.228982 32.4255 0.4121 33.2344 0.691871C33.9421 0.886449 34.6367 1.14183 35.2903 1.47477C36.0908 1.80395 36.8404 2.24016 37.6104 2.63161C37.8054 2.76608 38.0172 2.87254 38.2228 2.98957C38.6837 3.32633 39.197 3.58095 39.6548 3.92223C40.415 4.40727 41.1142 4.97961 41.8523 5.49649C42.8898 6.31588 43.9143 7.15347 44.9022 8.03143C45.3037 8.4076 45.7135 8.77549 46.124 9.14185C46.2832 9.31593 46.4416 9.49154 46.6176 9.6497C47.1089 10.1019 47.5477 10.6073 48.0238 11.0748C49.1121 12.0903 50.1428 13.1659 51.136 14.2741C52.1232 15.4264 53.1173 16.5787 53.9825 17.8268C54.6598 18.688 55.2485 19.6138 55.8313 20.5412C56.9425 22.408 57.9168 24.3827 58.4537 26.4958C58.6107 27.2278 58.7904 27.959 58.8178 28.7108C58.9054 29.3135 58.862 29.9238 58.8742 30.5312C58.8019 32.0293 58.5246 33.5238 58.0059 34.936C57.5945 36.1552 57.0103 37.3068 56.4041 38.4394C56.0307 39.1394 55.598 39.8044 55.1777 40.4764C54.9194 40.8313 54.6795 41.1986 54.4388 41.5648C53.8538 42.2809 53.3679 43.0736 52.7562 43.7683C52.0813 44.6289 51.3562 45.4467 50.6401 46.2722C50.3149 46.5626 50.0567 46.916 49.749 47.2238C49.1031 47.898 48.4274 48.5433 47.7563 49.1909C45.7394 51.3428 43.5091 53.2871 41.1379 55.0399C40.6702 55.3356 40.2726 55.7285 39.7843 55.9953C39.14 56.4804 38.4232 56.8573 37.7499 57.3005C37.084 57.6836 36.3841 58.0028 35.7009 58.3525C35.1729 58.6018 34.6337 58.8252 34.0883 59.0335C33.7334 59.2099 33.3449 59.2904 32.9678 59.4044C32.2625 59.6234 31.5321 59.7579 30.8053 59.8917C30.6295 59.9213 30.4504 59.9114 30.2736 59.932C29.4404 60.09 28.5957 59.9365 27.7668 59.8362C27.0052 59.7032 26.2526 59.5261 25.5199 59.2767C24.9577 59.1247 24.4322 58.8632 23.8815 58.6763C23.6102 58.5166 23.3101 58.4156 23.026 58.2818C22.2125 57.8691 21.3982 57.454 20.6167 56.9836C20.1857 56.6681 19.7019 56.4324 19.2747 56.1132C18.8008 55.803 18.3362 55.4807 17.8922 55.1297C17.1335 54.6036 16.4197 54.0169 15.6954 53.4445C15.3236 53.1031 14.91 52.8106 14.5467 52.4602C13.9267 51.9509 13.36 51.3831 12.7536 50.8579C12.6281 50.7203 12.5045 50.5803 12.3675 50.455C11.8769 50.0072 11.4367 49.5087 10.969 49.0389C9.67495 47.8212 8.43782 46.542 7.28307 45.1921C6.38967 44.1416 5.51209 43.0736 4.72754 41.9388C4.3863 41.5633 4.15399 41.1111 3.84466 40.712C2.99165 39.4259 2.22311 38.0835 1.57108 36.6843C1.3045 36.0602 1.00596 35.4468 0.820796 34.7916C0.684444 34.4654 0.624211 34.1135 0.481861 33.7898C0.43758 33.6696 0.427052 33.5426 0.400254 33.4197C0.22128 32.6352 0.0857577 31.8378 0.0438375 31.0337C-0.0315805 30.5904 0.0218227 30.1405 0.00191537 29.6943C-0.011739 29.4898 0.0521949 29.2914 0.0490685 29.0879C0.0460696 28.2935 0.219749 27.5136 0.375115 26.7383C0.502343 26.1111 0.728597 25.5122 0.927415 24.9056C1.30827 23.8279 1.80799 22.7948 2.3541 21.7916C2.67326 21.1622 3.03963 20.5594 3.42501 19.9689C3.66735 19.5271 3.99173 19.138 4.25685 18.7101C4.50141 18.305 4.83875 17.966 5.09244 17.5669C5.78862 16.5992 6.55722 15.6856 7.32582 14.7751C7.62584 14.4511 7.87946 14.084 8.21004 13.7891C8.63364 13.3156 9.04876 12.8329 9.50656 12.3898C10.1501 11.7141 10.8608 11.1067 11.4908 10.4173C12.3645 9.51586 13.2694 8.64331 14.21 7.81094C14.5932 7.51296 14.9261 7.15723 15.316 6.86612C15.8279 6.41081 16.3855 6.01172 16.9088 5.57099C17.518 5.14076 18.1054 4.6808 18.7117 4.24682C19.0057 4.06523 19.2929 3.87282 19.5679 3.66308C20.3944 3.17581 21.1934 2.63925 22.051 2.20444C22.4212 1.97026 22.8372 1.82751 23.2249 1.62605C23.5189 1.49674 23.7999 1.33934 24.0947 1.20952C24.4047 1.06804 24.7436 1.00571 25.0529 0.862828C25.1821 0.801067 25.3194 0.762482 25.4576 0.727017H25.4686C25.5272 0.709317 25.5726 0.699386 25.625 0.684232C25.6772 0.673217 25.7322 0.656916 25.7828 0.643163C25.8089 0.635331 25.8221 0.632275 25.8473 0.624444L25.869 0.616995C25.9531 0.58656 26.0319 0.564019 26.1216 0.534285C26.3418 0.490415 26.5562 0.413375 26.7729 0.354351C27.3815 0.244137 27.9847 0.103549 28.604 0.0677662ZM14.4773 18.4198C14.2048 18.4797 13.9259 18.6068 13.7691 18.8477C13.5314 19.1958 13.4894 19.6321 13.4819 20.0425C13.4804 26.0223 13.4819 32.002 13.481 37.9817C13.4849 38.2455 13.453 38.5229 13.5664 38.7707C13.6814 38.9136 13.8742 38.966 14.0516 38.9669C14.8133 38.9722 15.5757 38.9675 16.3382 38.969C16.5089 38.9639 16.7008 38.9751 16.8464 38.8679C16.9719 38.7311 16.9514 38.5305 16.9674 38.3594C16.9705 35.7044 16.9674 33.0486 16.9691 30.3936C17.6712 30.364 18.3758 30.3899 19.0789 30.3806C19.916 30.3936 20.7691 30.3244 21.5895 30.5289C22.1036 30.6535 22.6086 30.9014 22.94 31.324C23.3741 31.8644 23.605 32.5334 23.7763 33.1953C24.202 34.9223 24.6318 36.6485 25.0545 38.3763C25.0963 38.5457 25.1626 38.7191 25.2989 38.8362C25.51 38.9706 25.7697 38.9714 26.0119 38.969C26.8269 38.9645 27.6428 38.9774 28.4578 38.963C28.7419 38.9357 28.7983 38.5776 28.7403 38.3518C28.2529 36.4014 27.7524 34.4541 27.2596 32.5044C27.0716 31.7337 26.801 30.969 26.3493 30.31C26.0157 29.822 25.5069 29.4967 24.9897 29.233L24.986 29.1432C25.1862 29.0291 25.401 28.9419 25.5938 28.8134C26.7409 28.0867 27.5209 26.8438 27.7593 25.5169C27.9588 24.4086 27.8978 23.2456 27.5445 22.1746C27.1742 21.0686 26.4461 20.0805 25.4741 19.4277C24.4055 18.7062 23.1038 18.3771 21.8225 18.3703C19.5626 18.3703 17.3026 18.3703 15.0426 18.3703C14.8529 18.3703 14.6625 18.3771 14.4773 18.4198ZM37.1786 18.428C36.8754 18.5041 36.5699 18.6523 36.3902 18.9175C36.1746 19.2307 36.074 19.6033 35.9537 19.9597C33.9543 26.093 31.9547 32.2269 29.9553 38.361C29.8654 38.5761 29.9172 38.909 30.186 38.9576C31.0537 38.9835 31.9228 38.9622 32.7911 38.969C33.0234 38.9669 33.2931 38.9918 33.4758 38.8163C33.6678 38.608 33.7075 38.3147 33.7974 38.0569C34.1713 36.8697 34.521 35.674 34.9095 34.4913C37.2745 34.4814 39.6403 34.4814 42.0055 34.4913C42.4259 35.7995 42.8144 37.1182 43.2226 38.4309C43.2752 38.5929 43.3422 38.7623 43.4831 38.8703C43.634 38.96 43.816 38.9653 43.9873 38.969C44.8505 38.969 45.7142 38.969 46.5772 38.9684C46.7014 38.966 46.8454 38.9737 46.9368 38.8726C47.0678 38.7342 47.035 38.5214 46.9855 38.3564C44.9578 32.1669 42.9309 25.9766 40.9041 19.7879C40.7487 19.3485 40.5795 18.8651 40.1766 18.5923C39.6434 18.2966 39.012 18.3855 38.4278 18.3703C38.011 18.3825 37.5876 18.333 37.1786 18.428ZM17.0047 21.5673C18.3819 21.5589 19.759 21.5673 21.1363 21.5635C21.5941 21.5582 22.0586 21.5871 22.5027 21.7103C23.2332 21.9154 23.8616 22.4581 24.1427 23.1651C24.4474 23.9609 24.4725 24.8744 24.1663 25.6734C23.9302 26.2586 23.5067 26.7923 22.927 27.0658C22.3489 27.3471 21.6946 27.4079 21.06 27.4163C19.7081 27.4133 18.3561 27.4185 17.004 27.414C16.9957 25.4652 16.9933 23.5154 17.0047 21.5673ZM38.3584 22.3297C38.3882 22.332 38.4483 22.3365 38.478 22.3388C38.8925 23.77 39.2854 25.2074 39.6968 26.6394C40.166 28.241 40.6465 29.8395 41.1096 31.4425C39.3235 31.4448 37.5365 31.4448 35.7502 31.4425C36.1464 30.0219 36.5699 28.609 36.976 27.1913C37.4489 25.5738 37.884 23.9456 38.3584 22.3297Z" fill="#2550DA"/>
<path d="M14.4774 18.4199C14.6625 18.3772 14.8529 18.3705 15.0426 18.3705C17.3026 18.3705 19.5626 18.3705 21.8226 18.3705C23.1038 18.3772 24.4055 18.7064 25.4742 19.4278C26.4462 20.0807 27.1743 21.0688 27.5445 22.1748C27.898 23.2457 27.9589 24.4087 27.7593 25.517C27.5209 26.844 26.7409 28.0868 25.5938 28.8136C25.4011 28.9419 25.1862 29.0294 24.986 29.1434L24.9898 29.2331C25.507 29.4969 26.0158 29.8222 26.3494 30.3101C26.8011 30.9692 27.0716 31.7338 27.2597 32.5046C27.7524 34.4543 28.253 36.4016 28.7404 38.352C28.7983 38.5777 28.7419 38.9358 28.4579 38.9631C27.6428 38.9776 26.827 38.9647 26.012 38.9692C25.7697 38.9715 25.51 38.9708 25.299 38.8363C25.1627 38.7192 25.0963 38.5458 25.0545 38.3764C24.6318 36.6486 24.2021 34.9224 23.7763 33.1955C23.605 32.5335 23.3742 31.8645 22.94 31.3241C22.6087 30.9015 22.1036 30.6537 21.5895 30.529C20.7691 30.3245 19.916 30.3938 19.0789 30.3808C18.3758 30.39 17.6712 30.3642 16.9691 30.3938C16.9675 33.0488 16.9705 35.7046 16.9675 38.3597C16.9514 38.5307 16.972 38.7313 16.8464 38.8681C16.7009 38.9753 16.509 38.964 16.3383 38.9692C15.5759 38.9677 14.8134 38.9722 14.0517 38.967C13.8742 38.9662 13.6815 38.9137 13.5664 38.7708C13.453 38.523 13.485 38.2456 13.4811 37.9818C13.4819 32.0021 13.4804 26.0224 13.4819 20.0427C13.4895 19.6323 13.5314 19.1959 13.7691 18.8478C13.926 18.6069 14.2049 18.4799 14.4774 18.4199ZM17.0048 21.5674C16.9934 23.5156 16.9957 25.4652 17.004 27.4142C18.3561 27.4187 19.7081 27.4134 21.0601 27.4164C21.6946 27.408 22.3489 27.3472 22.9271 27.066C23.5067 26.7924 23.9302 26.2588 24.1664 25.6735C24.4726 24.8746 24.4474 23.961 24.1428 23.1652C23.8617 22.4582 23.2333 21.9156 22.5028 21.7104C22.0587 21.5872 21.5941 21.5583 21.1363 21.5637C19.7591 21.5674 18.382 21.5591 17.0048 21.5674ZM37.1786 18.4282C37.5877 18.3332 38.0111 18.3826 38.4278 18.3705C39.012 18.3856 39.6435 18.2968 40.1767 18.5924C40.5795 18.8653 40.7488 19.3487 40.9041 19.788C42.931 25.9768 44.9579 32.1671 46.9855 38.3566C47.0351 38.5216 47.0679 38.7344 46.9369 38.8727C46.8454 38.9738 46.7015 38.9662 46.5773 38.9685C45.7142 38.9692 44.8505 38.9692 43.9875 38.9692C43.8161 38.9655 43.634 38.9601 43.4832 38.8704C43.3423 38.7625 43.2753 38.593 43.2227 38.4311C42.8145 37.1184 42.426 35.7996 42.0055 34.4915C39.6404 34.4816 37.2746 34.4816 34.9095 34.4915C34.521 35.6741 34.1714 36.8699 33.7974 38.0571C33.7075 38.3148 33.6678 38.6082 33.4759 38.8165C33.2932 38.992 33.0235 38.967 32.7911 38.9692C31.9229 38.9624 31.0537 38.9837 30.1862 38.9578C29.9173 38.9092 29.8655 38.5762 29.9553 38.3612C31.9548 32.2271 33.9542 26.0931 35.9537 19.9598C36.0741 19.6034 36.1746 19.2309 36.3903 18.9177C36.5699 18.6524 36.8755 18.5042 37.1786 18.4282ZM38.3585 22.3299C37.884 23.9458 37.449 25.574 36.976 27.1914C36.57 28.6091 36.1465 30.0221 35.7504 31.4427C37.5365 31.445 39.3235 31.445 41.1097 31.4427C40.6466 29.8396 40.166 28.2412 39.6968 26.6396C39.2854 25.2076 38.8925 23.7702 38.4781 22.3389C38.4484 22.3367 38.3882 22.3322 38.3585 22.3299Z" fill="white"/>
<path fill-rule="evenodd" clip-rule="evenodd" d="M35.0668 5.65145C35.6651 5.69188 36.2309 5.9148 36.7805 6.13669C37.4406 6.4064 38.0836 6.73125 38.6785 7.1271C39.2096 7.43278 39.7174 7.78495 40.1756 8.19117C40.7534 8.62515 41.2674 9.13496 41.8075 9.61294C41.9368 9.76251 42.0856 9.89303 42.2271 10.0307C42.5288 10.3996 42.8901 10.7131 43.1882 11.085C43.7006 11.6365 44.1453 12.2459 44.6331 12.8185C45.2992 13.6985 45.951 14.5904 46.5646 15.5073C46.81 15.8956 47.0637 16.279 47.3184 16.6612C47.4104 16.8353 47.5016 17.0105 47.6105 17.1753C47.9124 17.6438 48.1606 18.1444 48.447 18.6222C49.113 19.6714 49.7195 20.757 50.289 21.8612C50.8443 22.9997 51.4052 24.1397 51.8418 25.3301C52.2078 26.1683 52.4888 27.0401 52.7646 27.9121C53.2697 29.6543 53.6413 31.4549 53.6303 33.2756C53.603 33.9002 53.5943 34.5291 53.4581 35.1425C53.402 35.6481 53.2384 36.1323 53.1203 36.6259C52.7463 37.8218 52.2073 38.9716 51.4907 40.0045C50.9012 40.9038 50.1865 41.7122 49.4579 42.5005C49.0086 42.9881 48.5187 43.435 48.0375 43.89C47.7539 44.1228 47.4826 44.3694 47.2109 44.615C46.5873 45.0711 46.0275 45.61 45.3867 46.0433C44.6599 46.5974 43.9015 47.1064 43.1488 47.6235C42.8246 47.7901 42.5415 48.0217 42.228 48.2059C41.5638 48.6154 40.8816 48.9954 40.2028 49.378C38.1191 50.6946 35.9067 51.7986 33.6207 52.7182C33.1804 52.8591 32.7762 53.0934 32.3252 53.2066C31.7023 53.4636 31.0435 53.6179 30.4058 53.835C29.7869 54.005 29.1538 54.1163 28.528 54.2556C28.0486 54.3465 27.5657 54.4139 27.0809 54.468C26.7568 54.5361 26.4259 54.5197 26.097 54.5327C25.4807 54.5619 24.8619 54.5174 24.2463 54.4731C24.0979 54.4601 23.9552 54.4146 23.808 54.3942C23.1011 54.3472 22.4506 54.0459 21.8017 53.791C21.214 53.5237 20.643 53.2227 20.1032 52.8675C19.6808 52.6267 19.311 52.305 18.9052 52.0385C18.7196 51.8526 18.4982 51.7079 18.2968 51.5401C17.726 51.0359 17.1552 50.5296 16.6226 49.9853C16.3406 49.64 15.9992 49.348 15.721 49.0003C15.4033 48.6502 15.0956 48.2923 14.8106 47.9153C14.3082 47.331 13.8547 46.7069 13.3898 46.0923C13.1611 45.7384 12.8884 45.4152 12.6685 45.0557C12.2745 44.514 11.936 43.9361 11.5564 43.3844C11.484 43.2468 11.4136 43.1078 11.3292 42.9778C11.0269 42.5128 10.7761 42.0175 10.497 41.5397C9.70736 40.2839 8.97673 38.9904 8.32757 37.6569C7.82664 36.6204 7.34216 35.573 6.94695 34.4912C6.75024 34.116 6.65765 33.7017 6.49163 33.3142C6.07294 32.0957 5.73445 30.8493 5.50208 29.5815C5.41804 29.021 5.30587 28.4626 5.2942 27.8941C5.25272 27.6019 5.27805 27.3048 5.23122 27.0132C5.22076 26.9068 5.23901 26.8019 5.24322 26.6969C5.26376 26.0251 5.32214 25.3522 5.4576 24.6934C5.49001 24.3193 5.62796 23.9668 5.70587 23.6018C5.7379 23.4337 5.83138 23.2867 5.8717 23.1215C6.03657 22.4788 6.34124 21.8847 6.63009 21.2906C6.86502 20.8103 7.1741 20.3736 7.46256 19.9249C7.99744 19.1336 8.61897 18.4033 9.27176 17.7068C9.66232 17.265 10.0854 16.8546 10.5213 16.458C10.8103 16.1518 11.1545 15.9052 11.4589 15.615C11.7419 15.3387 12.086 15.1355 12.3751 14.8661C13.1418 14.2298 13.9555 13.6525 14.7685 13.0777C15.0793 12.8787 15.3617 12.6352 15.691 12.466C16.1332 12.1721 16.5704 11.869 17.0338 11.6068C17.6963 11.1956 18.3987 10.8536 19.0532 10.4285C19.9493 9.88303 20.8646 9.36743 21.8003 8.89193C22.1729 8.73135 22.5169 8.5136 22.8934 8.36009C23.4031 8.09935 23.9379 7.89369 24.4538 7.64716C25.0368 7.42718 25.6085 7.1786 26.19 6.95486C26.466 6.8698 26.7386 6.77448 27.0051 6.66255C27.7758 6.44206 28.5348 6.17591 29.3196 6.00425C29.6683 5.89258 30.0345 5.86443 30.3904 5.78294C30.6553 5.74002 30.9156 5.67176 31.1813 5.62859C31.4617 5.57931 31.7488 5.59994 32.0289 5.54939C32.1463 5.52653 32.2655 5.52418 32.3846 5.52443L32.3935 5.52672C32.4446 5.52468 32.4834 5.52621 32.5289 5.52494C32.5735 5.52704 32.6214 5.52538 32.6651 5.52487C32.6878 5.52398 32.6992 5.5243 32.7212 5.52328L32.7404 5.52182C32.8148 5.51481 32.8832 5.5131 32.962 5.50787C33.1492 5.51857 33.3387 5.50132 33.5264 5.49902C34.0415 5.53761 34.5588 5.55047 35.0668 5.65145V5.65145Z" stroke="white" stroke-width="1.2" stroke-miterlimit="22.9256"/>
<path d="M65.6983 47.4693L66.8715 44.51H67.6524L65.8489 48.7581C65.7274 49.0289 65.6142 49.2215 65.5091 49.3359C65.4041 49.448 65.2803 49.5344 65.1379 49.5951C64.9978 49.6534 64.8216 49.6826 64.6091 49.6826C64.4247 49.6826 64.3067 49.6721 64.2554 49.6511L64.2764 49.1188L64.5951 49.1328C64.8402 49.1328 65.0223 49.0149 65.1414 48.7791L65.229 48.597L65.3621 48.2853L63.625 44.51H64.378L65.6983 47.4693Z" fill="#252525"/>
<path d="M71.6006 49.6091H70.9527V46.3556H69.2086V49.6091H68.5573V45.8198H71.6006V49.6091Z" fill="#252525"/>
<path d="M76.3437 47.7565C76.3437 48.3331 76.2118 48.7978 75.948 49.1503C75.6842 49.5028 75.327 49.6791 74.8764 49.6791C74.4164 49.6791 74.0545 49.5332 73.7907 49.2414V51.066H73.1428V45.8198H73.7347L73.7662 46.24C74.03 45.9132 74.3966 45.7497 74.8658 45.7497C75.3211 45.7497 75.6807 45.9213 75.9445 46.2645C76.2107 46.6078 76.3437 47.0852 76.3437 47.6969V47.7565ZM75.6958 47.6829C75.6958 47.2557 75.6048 46.9183 75.4227 46.6708C75.2406 46.4233 74.9908 46.2996 74.6732 46.2996C74.281 46.2996 73.9868 46.4735 73.7907 46.8214V48.632C73.9845 48.9775 74.281 49.1503 74.6802 49.1503C74.9908 49.1503 75.2371 49.0277 75.4192 48.7826C75.6036 48.5351 75.6958 48.1685 75.6958 47.6829Z" fill="#252525"/>
<path d="M80.0117 49.6091C79.9744 49.5344 79.944 49.4013 79.9207 49.2098C79.6195 49.5227 79.2599 49.6791 78.842 49.6791C78.4685 49.6791 78.1614 49.5741 77.921 49.3639C77.6828 49.1515 77.5637 48.883 77.5637 48.5584C77.5637 48.1639 77.7132 47.858 78.012 47.6409C78.3132 47.4214 78.7358 47.3117 79.2798 47.3117H79.9102V47.014C79.9102 46.7875 79.8425 46.6078 79.707 46.4747C79.5716 46.3393 79.372 46.2716 79.1082 46.2716C78.877 46.2716 78.6833 46.3299 78.5268 46.4467C78.3704 46.5634 78.2922 46.7047 78.2922 46.8704H77.6408C77.6408 46.6813 77.7073 46.4992 77.8404 46.3241C77.9758 46.1466 78.1579 46.0066 78.3867 45.9038C78.6179 45.8011 78.8712 45.7497 79.1467 45.7497C79.5833 45.7497 79.9253 45.8595 80.1728 46.0789C80.4203 46.2961 80.5487 46.5961 80.5581 46.979V48.723C80.5581 49.0709 80.6024 49.3476 80.6911 49.553V49.6091H80.0117ZM78.9366 49.1153C79.1397 49.1153 79.3323 49.0627 79.5144 48.9577C79.6965 48.8526 79.8285 48.716 79.9102 48.5479V47.7705H79.4024C78.6085 47.7705 78.2116 48.0028 78.2116 48.4674C78.2116 48.6705 78.2793 48.8293 78.4148 48.9437C78.5502 49.0581 78.7241 49.1153 78.9366 49.1153Z" fill="#252525"/>
<path d="M82.1353 49.6091V45.8198H83.6132C84.1175 45.8198 84.5039 45.9085 84.7724 46.0859C85.0432 46.261 85.1786 46.519 85.1786 46.8599C85.1786 47.035 85.1261 47.1938 85.021 47.3362C84.916 47.4763 84.7607 47.5837 84.5552 47.6584C84.7841 47.7121 84.9673 47.8172 85.1051 47.9736C85.2452 48.13 85.3152 48.3168 85.3152 48.5339C85.3152 48.8818 85.1868 49.148 84.93 49.3324C84.6755 49.5169 84.3148 49.6091 83.8478 49.6091H82.1353ZM82.7832 47.9456V49.0873H83.8548C84.1257 49.0873 84.3276 49.0371 84.4607 48.9367C84.5961 48.8363 84.6638 48.695 84.6638 48.5129C84.6638 48.1347 84.386 47.9456 83.8303 47.9456H82.7832ZM82.7832 47.4273H83.6202C84.2272 47.4273 84.5307 47.2498 84.5307 46.8949C84.5307 46.5401 84.2436 46.3568 83.6692 46.3451H82.7832V47.4273Z" fill="#252525"/>
<path d="M89.7817 45.8198V49.6091H89.1303V46.3556H87.8415L87.7645 47.774C87.7224 48.4254 87.6127 48.8911 87.4353 49.1713C87.2601 49.4515 86.9811 49.5974 86.5982 49.6091H86.3391V49.0382L86.5247 49.0242C86.7348 49.0009 86.8854 48.8795 86.9765 48.66C87.0675 48.4405 87.1259 48.0343 87.1516 47.4413L87.2216 45.8198H89.7817Z" fill="#252525"/>
<path d="M92.8963 49.6791C92.3827 49.6791 91.9648 49.511 91.6426 49.1748C91.3204 48.8363 91.1593 48.3845 91.1593 47.8195V47.7004C91.1593 47.3245 91.2305 46.9895 91.3729 46.6953C91.5177 46.3988 91.7184 46.1677 91.9753 46.0019C92.2344 45.8338 92.5146 45.7497 92.8158 45.7497C93.3084 45.7497 93.6913 45.912 93.9645 46.2365C94.2376 46.5611 94.3742 47.0257 94.3742 47.6304V47.9H91.8072C91.8165 48.2736 91.9251 48.576 92.1329 48.8071C92.343 49.0359 92.6092 49.1503 92.9314 49.1503C93.1602 49.1503 93.3539 49.1036 93.5127 49.0102C93.6715 48.9168 93.8104 48.7931 93.9295 48.639L94.3252 48.9472C94.0077 49.4351 93.5314 49.6791 92.8963 49.6791ZM92.8158 46.2821C92.5543 46.2821 92.3348 46.3778 92.1574 46.5692C91.9799 46.7583 91.8702 47.0245 91.8282 47.3677H93.7263V47.3187C93.7077 46.9895 93.6189 46.735 93.4602 46.5552C93.3014 46.3731 93.0866 46.2821 92.8158 46.2821Z" fill="#252525"/>
<path d="M98.7251 49.6091H98.0772V47.9911H96.3367V49.6091H95.6853V45.8198H96.3367V47.4623H98.0772V45.8198H98.7251V49.6091Z" fill="#252525"/>
<path d="M102.722 45.8198H103.37V49.6091H102.722V46.8459L100.975 49.6091H100.327V45.8198H100.975V48.5865L102.722 45.8198Z" fill="#252525"/>
<path d="M106.485 49.6791C105.971 49.6791 105.553 49.511 105.231 49.1748C104.909 48.8363 104.748 48.3845 104.748 47.8195V47.7004C104.748 47.3245 104.819 46.9895 104.961 46.6953C105.106 46.3988 105.307 46.1677 105.564 46.0019C105.823 45.8338 106.103 45.7497 106.404 45.7497C106.897 45.7497 107.28 45.912 107.553 46.2365C107.826 46.5611 107.963 47.0257 107.963 47.6304V47.9H105.396C105.405 48.2736 105.514 48.576 105.721 48.8071C105.932 49.0359 106.198 49.1503 106.52 49.1503C106.749 49.1503 106.942 49.1036 107.101 49.0102C107.26 48.9168 107.399 48.7931 107.518 48.639L107.914 48.9472C107.596 49.4351 107.12 49.6791 106.485 49.6791ZM106.404 46.2821C106.143 46.2821 105.923 46.3778 105.746 46.5692C105.568 46.7583 105.459 47.0245 105.417 47.3677H107.315V47.3187C107.296 46.9895 107.207 46.735 107.049 46.5552C106.89 46.3731 106.675 46.2821 106.404 46.2821Z" fill="#252525"/>
<path d="M114.7 47.7565C114.7 48.3331 114.568 48.7978 114.304 49.1503C114.04 49.5028 113.683 49.6791 113.232 49.6791C112.773 49.6791 112.411 49.5332 112.147 49.2414V51.066H111.499V45.8198H112.091L112.122 46.24C112.386 45.9132 112.753 45.7497 113.222 45.7497C113.677 45.7497 114.037 45.9213 114.301 46.2645C114.567 46.6078 114.7 47.0852 114.7 47.6969V47.7565ZM114.052 47.6829C114.052 47.2557 113.961 46.9183 113.779 46.6708C113.597 46.4233 113.347 46.2996 113.029 46.2996C112.637 46.2996 112.343 46.4735 112.147 46.8214V48.632C112.341 48.9775 112.637 49.1503 113.036 49.1503C113.347 49.1503 113.593 49.0277 113.775 48.7826C113.96 48.5351 114.052 48.1685 114.052 47.6829Z" fill="#252525"/>
<path d="M117.601 49.6791C117.087 49.6791 116.669 49.511 116.347 49.1748C116.025 48.8363 115.864 48.3845 115.864 47.8195V47.7004C115.864 47.3245 115.935 46.9895 116.077 46.6953C116.222 46.3988 116.423 46.1677 116.68 46.0019C116.939 45.8338 117.219 45.7497 117.52 45.7497C118.013 45.7497 118.396 45.912 118.669 46.2365C118.942 46.5611 119.079 47.0257 119.079 47.6304V47.9H116.512C116.521 48.2736 116.63 48.576 116.837 48.8071C117.048 49.0359 117.314 49.1503 117.636 49.1503C117.865 49.1503 118.058 49.1036 118.217 49.0102C118.376 48.9168 118.515 48.7931 118.634 48.639L119.03 48.9472C118.712 49.4351 118.236 49.6791 117.601 49.6791ZM117.52 46.2821C117.259 46.2821 117.039 46.3778 116.862 46.5692C116.684 46.7583 116.575 47.0245 116.533 47.3677H118.431V47.3187C118.412 46.9895 118.323 46.735 118.165 46.5552C118.006 46.3731 117.791 46.2821 117.52 46.2821Z" fill="#252525"/>
<path d="M123.433 49.6091H122.785V46.3556H121.041V49.6091H120.39V45.8198H123.433V49.6091Z" fill="#252525"/>
<path d="M126.215 48.66L127.098 45.8198H127.791L126.268 50.1939C126.032 50.8243 125.657 51.1395 125.143 51.1395L125.021 51.129L124.779 51.0835V50.5582L124.954 50.5722C125.174 50.5722 125.344 50.5278 125.466 50.4391C125.589 50.3504 125.691 50.1881 125.77 49.9523L125.914 49.5671L124.562 45.8198H125.27L126.215 48.66Z" fill="#252525"/>
<path d="M131.69 46.3451H130.419V49.6091H129.771V46.3451H128.524V45.8198H131.69V46.3451Z" fill="#252525"/>
<path d="M135.106 49.6091C135.069 49.5344 135.038 49.4013 135.015 49.2098C134.714 49.5227 134.354 49.6791 133.936 49.6791C133.563 49.6791 133.256 49.5741 133.015 49.3639C132.777 49.1515 132.658 48.883 132.658 48.5584C132.658 48.1639 132.807 47.858 133.106 47.6409C133.408 47.4214 133.83 47.3117 134.374 47.3117H135.004V47.014C135.004 46.7875 134.937 46.6078 134.801 46.4747C134.666 46.3393 134.466 46.2716 134.203 46.2716C133.971 46.2716 133.778 46.3299 133.621 46.4467C133.465 46.5634 133.387 46.7047 133.387 46.8704H132.735C132.735 46.6813 132.802 46.4992 132.935 46.3241C133.07 46.1466 133.252 46.0066 133.481 45.9038C133.712 45.8011 133.966 45.7497 134.241 45.7497C134.678 45.7497 135.02 45.8595 135.267 46.0789C135.515 46.2961 135.643 46.5961 135.652 46.979V48.723C135.652 49.0709 135.697 49.3476 135.785 49.553V49.6091H135.106ZM134.031 49.1153C134.234 49.1153 134.427 49.0627 134.609 48.9577C134.791 48.8526 134.923 48.716 135.004 48.5479V47.7705H134.497C133.703 47.7705 133.306 48.0028 133.306 48.4674C133.306 48.6705 133.374 48.8293 133.509 48.9437C133.645 49.0581 133.818 49.1153 134.031 49.1153Z" fill="#252525"/>
<path d="M137.226 45.8198H137.877V49.0803H139.622V45.8198H140.269V49.0803H140.721L140.658 50.7333H140.077V49.6091H137.226V45.8198Z" fill="#252525"/>
<path d="M144.375 45.8198H145.023V49.6091H144.375V46.8459L142.628 49.6091H141.98V45.8198H142.628V48.5865L144.375 45.8198Z" fill="#252525"/>
<path d="M148.138 49.6791C147.624 49.6791 147.206 49.511 146.884 49.1748C146.562 48.8363 146.401 48.3845 146.401 47.8195V47.7004C146.401 47.3245 146.472 46.9895 146.614 46.6953C146.759 46.3988 146.96 46.1677 147.217 46.0019C147.476 45.8338 147.756 45.7497 148.057 45.7497C148.55 45.7497 148.933 45.912 149.206 46.2365C149.479 46.5611 149.616 47.0257 149.616 47.6304V47.9H147.049C147.058 48.2736 147.166 48.576 147.374 48.8071C147.584 49.0359 147.851 49.1503 148.173 49.1503C148.402 49.1503 148.595 49.1036 148.754 49.0102C148.913 48.9168 149.052 48.7931 149.171 48.639L149.567 48.9472C149.249 49.4351 148.773 49.6791 148.138 49.6791ZM148.057 46.2821C147.796 46.2821 147.576 46.3778 147.399 46.5692C147.221 46.7583 147.112 47.0245 147.07 47.3677H148.968V47.3187C148.949 46.9895 148.86 46.735 148.702 46.5552C148.543 46.3731 148.328 46.2821 148.057 46.2821Z" fill="#252525"/>
<path d="M153.322 45.8198H153.97V49.6091H153.322V46.8459L151.575 49.6091H150.927V45.8198H151.575V48.5865L153.322 45.8198ZM153.497 44.4399C153.497 44.7224 153.4 44.9501 153.207 45.1229C153.015 45.2933 152.763 45.3785 152.45 45.3785C152.137 45.3785 151.884 45.2921 151.69 45.1194C151.496 44.9466 151.399 44.7201 151.399 44.4399H151.928C151.928 44.6034 151.973 44.7318 152.061 44.8252C152.15 44.9162 152.28 44.9618 152.45 44.9618C152.614 44.9618 152.741 44.9162 152.832 44.8252C152.925 44.7341 152.972 44.6057 152.972 44.4399H153.497Z" fill="#252525"/>
</svg>
