<svg width="180" height="70" viewBox="0 0 180 70" fill="none" xmlns="http://www.w3.org/2000/svg">
<path d="M27.6989 0.808323C28.2553 0.716212 28.8187 0.7356 29.3803 0.72676C29.5588 0.725052 29.7428 0.733074 29.9099 0.804014C29.6842 0.863366 29.454 0.911281 29.2425 1.01238C28.8817 1.179 28.4863 1.25172 28.1245 1.4167C27.7807 1.56831 27.4528 1.75194 27.1098 1.90266C26.6574 2.13769 26.1722 2.30438 25.7403 2.57752C24.7397 3.0848 23.8075 3.71085 22.8433 4.27927C22.5226 4.52396 22.1875 4.74837 21.8445 4.9603C21.137 5.46661 20.4519 6.00323 19.741 6.50508C19.1305 7.01942 18.48 7.48495 17.8828 8.01615C17.4279 8.35584 17.0395 8.77079 16.5925 9.11851C15.495 10.0895 14.4392 11.1075 13.42 12.1593C12.685 12.9635 11.8559 13.6721 11.1051 14.4604C10.571 14.9774 10.0866 15.5405 9.59256 16.093C9.59077 16.0807 9.5872 16.0566 9.58541 16.0443C9.99862 15.5405 10.3204 14.9703 10.6865 14.432C11.7555 12.9005 12.8521 11.3852 14.0589 9.9582C14.2846 9.72413 14.4873 9.46957 14.6783 9.20713C14.881 8.92507 15.1564 8.70705 15.3688 8.43384C15.7936 7.91066 16.3019 7.46638 16.7524 6.96623C17.2501 6.48919 17.7318 5.99432 18.2578 5.54736C19.3136 4.63219 20.3924 3.73559 21.5921 3.01029C22.4469 2.4294 23.3853 1.98601 24.3256 1.56044C24.5335 1.51602 24.721 1.40615 24.9281 1.35735C25.831 1.09394 26.7481 0.813746 27.6989 0.808323ZM53.8254 10.6712C53.9384 10.6862 53.996 10.7909 54.0884 10.846C55.5877 11.8897 57.0726 12.9592 58.4732 14.1351C58.7547 14.3877 59.0445 14.6333 59.3573 14.8497C59.6639 15.1024 59.9261 15.4066 60.2406 15.6523C60.5552 15.897 60.8219 16.195 61.1098 16.4698C62.1033 17.4011 63.0168 18.4146 63.885 19.4637C64.325 20.033 64.7897 20.5837 65.1807 21.1894C65.6597 21.9724 66.1822 22.7342 66.5599 23.5739C67.07 24.6142 67.4619 25.7165 67.7098 26.8479C67.756 26.95 67.6903 27.1104 67.8031 27.177C67.971 27.8846 68.0572 28.6083 68.1533 29.3275C68.1798 29.8569 68.1763 30.3879 68.2101 30.9174C67.5837 28.4522 66.447 26.1483 65.1505 23.9704C64.4707 22.8885 63.7838 21.8084 62.9938 20.8037C61.9842 19.3475 60.8245 18.0032 59.6728 16.6588C58.5141 15.3659 57.3116 14.1111 56.0418 12.9263C55.4863 12.3809 54.9745 11.7912 54.4013 11.2637C54.196 11.0792 54.0112 10.8743 53.8254 10.6712ZM0.48114 38.9952C0.512256 39.1388 0.524687 39.287 0.5762 39.4271C0.742424 39.8048 0.812619 40.2154 0.971697 40.5958C1.18765 41.3603 1.53595 42.0759 1.84696 42.804C2.60773 44.4364 3.50436 46.0025 4.49961 47.503C4.86042 47.9686 5.13146 48.4962 5.52964 48.9343C6.44495 50.2582 7.46864 51.5042 8.51102 52.7297C9.85823 54.3047 11.3015 55.7971 12.8112 57.2178C13.3569 57.7658 13.8706 58.3475 14.4428 58.8698C14.6027 59.0161 14.7468 59.1793 14.8934 59.3399C14.7769 59.3301 14.7237 59.2077 14.6285 59.1625C12.9401 57.9884 11.2739 56.7744 9.72141 55.4247C9.29755 55.1391 8.94828 54.7684 8.56968 54.4297C8.10845 54.0759 7.72814 53.6325 7.29803 53.2433C6.2645 52.2297 5.29322 51.1494 4.41081 50.002C3.76646 49.2322 3.25461 48.3658 2.72766 47.5154C2.12067 46.4353 1.60436 45.2985 1.25695 44.1075C1.09251 43.6233 1.02946 43.1134 0.873958 42.6274C0.727312 41.957 0.643789 41.2743 0.561086 40.5941C0.56198 40.0592 0.512256 39.5282 0.48114 38.9952ZM58.0546 55.1001C58.4135 54.741 58.7148 54.3286 59.0943 53.9899C59.0996 54.1149 58.9441 54.1379 58.9103 54.2461C57.4867 56.4454 55.9431 58.5737 54.2281 60.5557C53.9037 61.0345 53.4602 61.4131 53.1021 61.8654C52.1583 62.8506 51.2146 63.8403 50.166 64.7173C49.6514 65.1802 49.0943 65.5908 48.5619 66.0324C47.1667 67.038 45.6915 67.9576 44.0724 68.558C43.2211 68.9269 42.3067 69.1441 41.3825 69.2088C40.8866 69.3233 40.3729 69.271 39.8682 69.3029C39.4071 69.38 38.9431 69.2408 38.4766 69.3109C38.9164 69.1778 39.3697 69.0839 39.7838 68.8781C40.42 68.6351 41.0492 68.3744 41.6651 68.0836C42.4622 67.6756 43.2789 67.3032 44.0555 66.8562C44.8412 66.3392 45.6774 65.8994 46.4292 65.3336C46.9988 65.0224 47.4627 64.5639 48.0083 64.2189C50.7747 62.174 53.3767 59.9056 55.7298 57.3951C56.5127 56.6396 57.301 55.8867 58.0546 55.1001Z" fill="#AEC5FF"/>
<path d="M133.352 28.8298C133.517 28.7618 133.702 28.7786 133.88 28.7741C134.35 28.7803 134.821 28.7681 135.292 28.7796C135.405 28.7875 135.564 28.8015 135.613 28.9287C135.662 29.0894 135.651 29.2635 135.66 29.4312C135.66 34.082 135.659 38.734 135.66 43.3847C135.657 43.6462 135.675 43.912 135.623 44.1708C135.593 44.3192 135.422 44.3493 135.298 44.3483C134.796 44.3572 134.294 44.3458 133.791 44.3527C133.618 44.344 133.418 44.3722 133.276 44.2511C133.181 44.1292 133.194 43.9703 133.192 43.8263C133.193 38.9681 133.192 34.1104 133.192 29.2519C133.195 29.1044 133.188 28.8997 133.352 28.8298ZM101.261 28.775C101.503 28.6938 101.765 28.7397 102.018 28.7292C102.462 28.7423 102.91 28.7026 103.353 28.7495C103.55 28.7733 103.582 29.0003 103.578 29.162C103.581 31.7832 103.578 34.4045 103.58 37.0258C103.582 37.8525 103.62 38.6826 103.767 39.497C103.885 40.1188 104.112 40.7405 104.529 41.2272C104.948 41.7155 105.553 42.0052 106.173 42.1455C106.723 42.2826 107.293 42.3089 107.859 42.3302C108.788 42.3072 109.721 42.2491 110.637 42.0882C110.673 41.9037 110.65 41.7155 110.655 41.5301C110.654 37.4382 110.656 33.3464 110.654 29.2547C110.659 29.1142 110.645 28.9624 110.719 28.836C110.822 28.7177 110.99 28.7354 111.134 28.7282C111.634 28.7292 112.137 28.7292 112.639 28.7282C112.778 28.7327 112.947 28.7238 113.053 28.8369C113.134 28.9587 113.115 29.1142 113.123 29.2537C113.121 33.5523 113.123 37.8498 113.122 42.1483C113.121 42.6826 113.008 43.2471 112.656 43.6656C112.287 44.1169 111.709 44.343 111.142 44.411C110.29 44.5196 109.429 44.5744 108.569 44.6036C107.479 44.6371 106.377 44.624 105.307 44.388C104.365 44.1911 103.435 43.7865 102.756 43.0889C102.139 42.4848 101.754 41.6846 101.522 40.8623C101.201 39.7009 101.125 38.4902 101.112 37.2899C101.111 34.6111 101.113 31.9324 101.111 29.2537C101.119 29.0903 101.089 28.866 101.261 28.775ZM145.337 30.7244C144.637 30.8391 143.984 31.1861 143.48 31.6816C142.848 32.2857 142.457 33.0947 142.212 33.9232C141.996 34.6721 141.887 35.4501 141.873 36.2291C141.852 37.2042 141.912 38.1837 142.102 39.142C142.259 39.89 142.538 40.63 143.025 41.2289C143.522 41.8499 144.245 42.287 145.033 42.4213C145.999 42.5846 147.051 42.5281 147.916 42.03C148.91 41.4559 149.526 40.4068 149.81 39.3231C150.15 37.9982 150.189 36.6115 150.072 35.255C149.993 34.3789 149.849 33.4895 149.451 32.6955C149.054 31.8697 148.343 31.1747 147.469 30.8744C146.784 30.6545 146.045 30.6147 145.337 30.7244ZM145.075 28.5225C146.156 28.3962 147.272 28.4598 148.315 28.7856C149.186 29.0577 149.991 29.5505 150.616 30.2181C151.399 31.0493 151.915 32.1019 152.222 33.1937C152.606 34.5802 152.673 36.0339 152.603 37.4648C152.519 38.9309 152.236 40.4207 151.512 41.7155C150.981 42.6773 150.182 43.5013 149.198 44.0031C148.137 44.5515 146.922 44.7326 145.738 44.7034C144.407 44.6893 143.038 44.3502 141.971 43.5288C141.047 42.8327 140.402 41.8214 140.018 40.7422C139.526 39.3557 139.393 37.8701 139.405 36.4085C139.422 34.8575 139.689 33.2793 140.411 31.8918C140.988 30.7339 141.914 29.7377 143.074 29.1486C143.698 28.8263 144.379 28.6178 145.075 28.5225ZM93.6591 24.8952C93.8263 24.8316 94.0185 24.7548 94.1803 24.8838C94.2326 25.0391 94.2405 25.2051 94.245 25.3685C94.2459 26.5141 94.2415 27.6597 94.2468 28.8051C95.3025 28.836 96.3612 28.806 97.4188 28.8192C97.5693 28.8042 97.7524 28.8917 97.7542 29.0631C97.8047 29.5645 97.7746 30.0724 97.7738 30.5759C97.7905 30.7348 97.701 30.9353 97.5135 30.9194C96.4258 30.9459 95.3354 30.9018 94.2476 30.9406C94.2405 34.1175 94.2468 37.2942 94.245 40.4712C94.2405 40.9728 94.3105 41.5151 94.6415 41.9152C95.0028 42.3152 95.5743 42.4044 96.0876 42.4151C96.9205 42.3983 97.7444 42.2578 98.5729 42.1801C98.6021 42.204 98.6606 42.2526 98.6889 42.2764C98.8039 42.6376 98.8384 43.0192 98.9225 43.3883C98.965 43.6399 99.0429 43.9005 98.9827 44.1549C98.8977 44.2485 98.7756 44.2884 98.6615 44.3253C97.6879 44.631 96.6575 44.6866 95.6452 44.7043C94.6477 44.6945 93.5485 44.555 92.7839 43.8555C92.005 43.0959 91.8084 41.9523 91.7819 40.911C91.766 37.5848 91.7899 34.258 91.7696 30.9318C91.0536 30.9133 90.3367 30.9371 89.6205 30.9221C89.4347 30.9406 89.3064 30.7542 89.3162 30.5864C89.3046 30.2297 89.301 29.8728 89.3179 29.5169C89.3348 29.3041 89.5135 29.138 89.7171 29.0957C90.4481 28.9341 91.1846 28.7962 91.9146 28.6302C92.0722 27.6923 92.213 26.7516 92.3669 25.8128C92.3979 25.6627 92.4254 25.4844 92.5616 25.3889C92.8855 25.1442 93.2909 25.0523 93.6591 24.8952ZM79.5017 23.3178C80.3081 23.2277 81.1224 23.2383 81.9313 23.2939C83.403 23.4194 84.8775 23.6817 86.2476 24.2505C86.4433 24.3388 86.6574 24.4024 86.8283 24.5385C86.9788 24.6947 86.8974 24.9209 86.8308 25.0956C86.6158 25.6352 86.4353 26.19 86.207 26.7243C86.1609 26.915 85.9475 26.8524 85.8193 26.794C84.1694 26.1061 82.3879 25.7288 80.5992 25.7184C79.862 25.7386 79.1017 25.8481 78.4547 26.2235C77.8635 26.567 77.3715 27.1253 77.2033 27.7975C77.0182 28.533 77.0988 29.3713 77.5592 29.9947C78.0344 30.6431 78.7451 31.0652 79.453 31.4184C81.1143 32.2151 82.8597 32.8252 84.512 33.6432C85.7095 34.2489 86.8363 35.1101 87.4797 36.3123C88.0974 37.41 88.1629 38.7287 87.985 39.9509C87.7681 41.4373 86.8602 42.7948 85.5884 43.5914C84.3704 44.3616 82.9092 44.653 81.486 44.7007C79.1407 44.7432 76.7528 44.4199 74.5879 43.4872C74.3463 43.3733 74.0994 43.269 73.871 43.1313C73.6782 43.0236 73.7003 42.7727 73.779 42.5996C73.9984 42.1006 74.2127 41.6008 74.4268 41.1001C74.4861 40.9755 74.5366 40.828 74.6748 40.7696C74.8119 40.7477 74.9367 40.8147 75.0605 40.8677C76.3527 41.4612 77.729 41.8675 79.1328 42.0935C80.3514 42.2852 81.6144 42.3108 82.8171 42.0105C83.6588 41.7907 84.4952 41.3508 84.9713 40.5983C85.4546 39.8167 85.5211 38.8178 85.2608 37.9488C84.9458 37.0232 84.1456 36.3705 83.3225 35.8988C81.8144 35.0466 80.1347 34.5687 78.5768 33.8217C77.5174 33.327 76.4704 32.7414 75.6704 31.8741C75.0216 31.1897 74.6004 30.2905 74.5135 29.3509C74.4092 28.3131 74.5313 27.2357 74.9739 26.2845C75.4242 25.3138 76.1979 24.4925 77.152 24.0013C77.8795 23.6189 78.6893 23.4177 79.5017 23.3178ZM134.018 22.9522C134.473 22.8347 134.985 22.8983 135.372 23.1801C135.875 23.5227 136.147 24.1436 136.098 24.7459C136.076 25.5762 135.345 26.3419 134.499 26.3356C133.593 26.386 132.774 25.5575 132.791 24.6603C132.754 23.8999 133.283 23.1588 134.018 22.9522ZM122.512 30.8223C121.515 30.9803 120.586 31.5306 120.003 32.3573C119.188 33.5026 118.905 34.9352 118.863 36.3165C118.824 37.6556 118.896 39.0482 119.477 40.2787C119.843 41.077 120.493 41.765 121.326 42.0794C122.332 42.475 123.442 42.4636 124.498 42.3267C125.179 42.2251 125.874 42.1315 126.518 41.8736C126.529 38.3374 126.524 34.801 126.519 31.2647C125.668 30.9821 124.778 30.8109 123.881 30.772C123.423 30.7304 122.963 30.7498 122.512 30.8223ZM126.659 22.6775C126.786 22.627 126.927 22.6387 127.064 22.6343C127.566 22.6378 128.067 22.6333 128.569 22.635C128.702 22.6439 128.881 22.6263 128.96 22.7649C129.029 22.9143 129.012 23.0864 129.022 23.248C129.021 29.6362 129.022 36.0252 129.022 42.4133C129.018 42.6791 129.035 42.9467 129.007 43.2125C128.995 43.4104 128.843 43.581 128.66 43.6471C127.682 44.101 126.633 44.4066 125.561 44.5276C124.326 44.6725 123.077 44.7652 121.836 44.661C120.595 44.5515 119.36 44.1038 118.43 43.2592C117.533 42.4574 116.967 41.3439 116.677 40.1885C116.381 39.0129 116.288 37.7951 116.305 36.5851C116.321 35.4838 116.482 34.3833 116.791 33.3253C117.158 32.1206 117.792 30.9777 118.718 30.1113C119.494 29.3907 120.452 28.8501 121.494 28.6312C122.562 28.3874 123.669 28.4553 124.752 28.54C125.354 28.5896 125.938 28.7495 126.52 28.9032C126.53 26.9601 126.518 25.0162 126.525 23.0731C126.537 22.9371 126.523 22.7579 126.659 22.6775Z" fill="#E4E9FA"/>
<path d="M33.3713 0.0790606C34.1942 -0.0760423 35.0376 0.0268408 35.8587 0.134105C36.8461 0.267146 37.8297 0.480783 38.7735 0.807182C39.5991 1.03419 40.4095 1.33214 41.1721 1.72057C42.106 2.10461 42.9804 2.61352 43.8788 3.07021C44.1063 3.2271 44.3534 3.3513 44.5933 3.48783C45.131 3.88072 45.7299 4.17777 46.264 4.57593C47.1508 5.14182 47.9665 5.80955 48.8277 6.41258C50.0381 7.36852 51.2334 8.34571 52.386 9.37C52.8543 9.80887 53.3324 10.2381 53.8113 10.6655C53.9971 10.8686 54.1819 11.0735 54.3872 11.258C54.9604 11.7855 55.4723 12.3752 56.0278 12.9206C57.2975 14.1054 58.4999 15.3602 59.6587 16.6531C60.8104 17.9975 61.9701 19.3418 62.9796 20.798C63.7697 21.8027 64.4566 22.8827 65.1365 23.9647C66.4329 26.1427 67.5696 28.4465 68.196 30.9118C68.3792 31.7657 68.5889 32.6189 68.6208 33.4959C68.723 34.1991 68.6724 34.9111 68.6865 35.6197C68.6022 37.3675 68.2787 39.111 67.6735 40.7586C67.1936 42.1811 66.512 43.5246 65.8047 44.8459C65.3692 45.6626 64.8643 46.4385 64.374 47.2224C64.0727 47.6366 63.7927 48.065 63.5119 48.4923C62.8295 49.3277 62.2625 50.2525 61.5489 51.063C60.7615 52.067 59.9156 53.0212 59.0802 53.9842C58.7007 54.323 58.3995 54.7354 58.0405 55.0944C57.2869 55.8809 56.4986 56.6339 55.7157 57.3893C53.3626 59.8999 50.7606 62.1683 47.9942 64.2133C47.4486 64.5582 46.9847 65.0166 46.415 65.3279C45.6633 65.8938 44.8271 66.3335 44.0415 66.8506C43.2647 67.2975 42.4481 67.67 41.6511 68.0779C41.0351 68.3688 40.406 68.6294 39.7697 68.8724C39.3556 69.0782 38.9024 69.1722 38.4625 69.3051C37.6395 69.5607 36.7874 69.7176 35.9395 69.8736C35.7344 69.9082 35.5254 69.8967 35.3192 69.9207C34.3471 70.105 33.3616 69.9259 32.3947 69.8089C31.5061 69.6537 30.628 69.4471 29.7732 69.1562C29.1173 68.9788 28.5042 68.6737 27.8617 68.4557C27.5453 68.2694 27.1951 68.1515 26.8637 67.9954C25.9145 67.514 24.9646 67.0297 24.0528 66.4808C23.55 66.1128 22.9856 65.8378 22.4871 65.4655C21.9343 65.1035 21.3922 64.7275 20.8742 64.3179C19.9891 63.7042 19.1563 63.0197 18.3113 62.3519C17.8776 61.9537 17.395 61.6123 16.9712 61.2035C16.2478 60.6094 15.5866 59.9469 14.8792 59.3342C14.7327 59.1737 14.5886 59.0104 14.4287 58.8642C13.8564 58.3418 13.3429 57.7602 12.7971 57.2121C11.2874 55.7914 9.84413 54.299 8.49692 52.7241C7.45461 51.4985 6.43077 50.2525 5.51546 48.9287C5.11736 48.4905 4.84632 47.9629 4.48544 47.4974C3.49026 45.9969 2.59363 44.4307 1.83293 42.7983C1.52192 42.0702 1.17362 41.3546 0.957596 40.5902C0.798518 40.2097 0.728246 39.7991 0.562171 39.4214C0.51051 39.2812 0.498227 39.133 0.466963 38.9896C0.258159 38.0744 0.100051 37.1441 0.0511438 36.206C-0.0368439 35.6888 0.0254598 35.1639 0.0022346 34.6433C-0.0136955 34.4048 0.0608941 34.1733 0.0572465 33.9358C0.0537479 33.0091 0.256373 32.0992 0.437634 31.1947C0.586067 30.4629 0.85003 29.7642 1.08198 29.0565C1.52631 27.7992 2.10932 26.594 2.74645 25.4235C3.1188 24.6892 3.54623 23.9859 3.99585 23.297C4.27857 22.7816 4.65702 22.3277 4.96632 21.8284C5.25165 21.3558 5.64521 20.9603 5.94118 20.4948C6.75339 19.3657 7.65009 18.2999 8.54679 17.2376C8.89681 16.8597 9.19271 16.4313 9.57838 16.0873C10.0726 15.5348 10.5569 14.9717 11.091 14.4547C11.8418 13.6665 12.6709 12.9579 13.4059 12.1535C14.4252 11.1018 15.4809 10.0839 16.5783 9.11276C17.0254 8.76512 17.4137 8.3501 17.8687 8.01048C18.4659 7.47928 19.1164 7.01367 19.727 6.49949C20.4377 5.99756 21.123 5.46094 21.8303 4.95462C22.1733 4.74277 22.5084 4.51828 22.8292 4.2736C23.7935 3.70511 24.7256 3.07913 25.7261 2.57185C26.1581 2.29864 26.6434 2.13209 27.0957 1.89706C27.4387 1.74619 27.7666 1.56257 28.1105 1.4111C28.4722 1.24605 28.8676 1.17332 29.2284 1.00663C29.3791 0.934578 29.5393 0.889562 29.7005 0.848187H29.7134C29.7817 0.827536 29.8348 0.81595 29.8958 0.798271C29.9568 0.78542 30.0209 0.766402 30.0799 0.750357C30.1103 0.74122 30.1258 0.737655 30.1551 0.728518L30.1805 0.719827C30.2786 0.68432 30.3705 0.658022 30.4752 0.623332C30.732 0.572151 30.9822 0.48227 31.235 0.41341C31.945 0.284826 32.6488 0.120808 33.3713 0.0790606ZM16.8902 21.4897C16.5723 21.5596 16.2469 21.7079 16.0639 21.989C15.7866 22.3951 15.7377 22.9041 15.7289 23.3829C15.7271 30.3593 15.7289 37.3357 15.7278 44.312C15.7324 44.6197 15.6952 44.9434 15.8274 45.2325C15.9616 45.3992 16.1865 45.4604 16.3936 45.4613C17.2822 45.4675 18.1717 45.4621 19.0612 45.4639C19.2604 45.4579 19.4843 45.471 19.6541 45.3459C19.8006 45.1863 19.7767 44.9523 19.7953 44.7527C19.7989 41.6552 19.7953 38.5567 19.7972 35.4592C20.6164 35.4247 21.4384 35.4548 22.2587 35.4441C23.2353 35.4592 24.2306 35.3785 25.1878 35.617C25.7875 35.7624 26.3767 36.0516 26.7633 36.5447C27.2698 37.1752 27.5392 37.9556 27.7391 38.7278C28.2357 40.7427 28.7371 42.7566 29.2302 44.7723C29.2791 44.97 29.3563 45.1722 29.5154 45.3088C29.7617 45.4657 30.0646 45.4666 30.3473 45.4639C31.2981 45.4586 32.2499 45.4737 33.2008 45.4568C33.5322 45.4249 33.598 45.0072 33.5304 44.7438C32.9617 42.4683 32.3778 40.1964 31.8029 37.9218C31.5835 37.0227 31.2679 36.1305 30.7409 35.3617C30.3517 34.7923 29.7581 34.4129 29.1547 34.1051L29.1503 34.0004C29.3839 33.8673 29.6345 33.7655 29.8594 33.6157C31.1977 32.7678 32.1077 31.3178 32.3859 29.7697C32.6186 28.4767 32.5475 27.1199 32.1352 25.8704C31.7033 24.58 30.8538 23.4272 29.7198 22.6656C28.4731 21.8239 26.9544 21.4399 25.4596 21.432C22.823 21.432 20.1864 21.432 17.5497 21.432C17.3284 21.432 17.1062 21.4399 16.8902 21.4897ZM43.375 21.4994C43.0213 21.5881 42.6649 21.761 42.4552 22.0705C42.2036 22.4359 42.0863 22.8705 41.946 23.2863C39.6133 30.4418 37.2805 37.598 34.9478 44.7545C34.843 45.0054 34.9034 45.3939 35.217 45.4506C36.2293 45.4808 37.2433 45.4558 38.2563 45.4639C38.5273 45.4613 38.8419 45.4905 39.0551 45.2857C39.2791 45.0427 39.3254 44.7005 39.4302 44.3998C39.8665 43.0147 40.2745 41.6197 40.7277 40.2398C43.4869 40.2283 46.2471 40.2283 49.0064 40.2398C49.4969 41.7661 49.9501 43.3046 50.4264 44.8361C50.4877 45.025 50.5659 45.2227 50.7303 45.3487C50.9064 45.4533 51.1187 45.4596 51.3186 45.4639C52.3256 45.4639 53.3333 45.4639 54.3401 45.4631C54.4849 45.4604 54.653 45.4693 54.7596 45.3513C54.9124 45.1899 54.8742 44.9416 54.8164 44.7492C52.4508 37.5281 50.0861 30.3061 47.7214 23.0858C47.5402 22.5733 47.3427 22.0093 46.8727 21.691C46.2506 21.346 45.514 21.4497 44.8324 21.432C44.3462 21.4463 43.8522 21.3885 43.375 21.4994ZM19.8388 25.1618C21.4455 25.152 23.0522 25.1618 24.659 25.1574C25.1931 25.1512 25.7351 25.185 26.2532 25.3287C27.1054 25.5679 27.8386 26.2011 28.1665 27.0259C28.5219 27.9544 28.5513 29.0201 28.194 29.9523C27.9185 30.6351 27.4245 31.2577 26.7482 31.5768C26.0737 31.9049 25.3104 31.9759 24.57 31.9857C22.9928 31.9822 21.4154 31.9883 19.8379 31.983C19.8283 29.7093 19.8255 27.4347 19.8388 25.1618ZM44.7515 26.0514C44.7863 26.054 44.8564 26.0593 44.891 26.0619C45.3745 27.7317 45.833 29.4086 46.3129 31.0793C46.8603 32.9478 47.4209 34.8127 47.9613 36.6829C45.8774 36.6856 43.7926 36.6856 41.7086 36.6829C42.1708 35.0256 42.6649 33.3771 43.1386 31.7232C43.6904 29.8361 44.198 27.9366 44.7515 26.0514Z" fill="white"/>
<path d="M16.8903 21.4896C17.1062 21.4398 17.3283 21.4319 17.5496 21.4319C20.1863 21.4319 22.8229 21.4319 25.4596 21.4319C26.9543 21.4398 28.473 21.8238 29.7199 22.6655C30.8538 23.4272 31.7033 24.5799 32.1352 25.8702C32.5475 27.1197 32.6186 28.4765 32.3858 29.7695C32.1077 31.3177 31.1976 32.7676 29.8594 33.6155C29.6345 33.7653 29.3838 33.8673 29.1502 34.0003L29.1546 34.105C29.758 34.4127 30.3516 34.7922 30.7409 35.3615C31.2679 36.1304 31.5834 37.0224 31.8028 37.9217C32.3777 40.1963 32.9617 42.4683 33.5304 44.7436C33.5979 45.007 33.5321 45.4247 33.2007 45.4567C32.2498 45.4735 31.2981 45.4584 30.3472 45.4638C30.0646 45.4665 29.7615 45.4656 29.5154 45.3087C29.3564 45.1721 29.279 44.9698 29.2302 44.7721C28.737 42.7564 28.2357 40.7425 27.7389 38.7277C27.5391 37.9554 27.2698 37.1749 26.7633 36.5445C26.3767 36.0514 25.7874 35.7623 25.1877 35.6168C24.2305 35.3783 23.2353 35.4591 22.2586 35.444C21.4384 35.4547 20.6163 35.4245 19.7971 35.4591C19.7953 38.5566 19.7988 41.655 19.7953 44.7526C19.7766 44.9521 19.8005 45.1862 19.654 45.3458C19.4843 45.4708 19.2603 45.4576 19.0612 45.4638C18.1717 45.462 17.2822 45.4673 16.3935 45.4612C16.1865 45.4602 15.9616 45.399 15.8274 45.2323C15.6951 44.9432 15.7323 44.6196 15.7279 44.3118C15.7288 37.3355 15.7271 30.3592 15.7288 23.3828C15.7376 22.904 15.7865 22.3949 16.0639 21.9888C16.247 21.7077 16.5722 21.5595 16.8903 21.4896ZM19.8388 25.1617C19.8255 27.4345 19.8282 29.7091 19.8379 31.9829C21.4153 31.9882 22.9927 31.982 24.57 31.9855C25.3103 31.9757 26.0737 31.9048 26.7482 31.5767C27.4244 31.2575 27.9185 30.6349 28.194 29.9521C28.5512 29.0201 28.5219 27.9542 28.1665 27.0257C27.8385 26.201 27.1054 25.5678 26.2531 25.3284C25.735 25.1848 25.193 25.151 24.6589 25.1573C23.0522 25.1617 21.4456 25.1519 19.8388 25.1617ZM43.3749 21.4992C43.8522 21.3884 44.3462 21.446 44.8324 21.4319C45.5139 21.4496 46.2506 21.3459 46.8727 21.6908C47.3427 22.0092 47.5401 22.5731 47.7214 23.0857C50.086 30.306 52.4508 37.5279 54.8164 44.749C54.8741 44.9415 54.9124 45.1898 54.7596 45.3512C54.6529 45.4691 54.485 45.4602 54.34 45.4629C53.3332 45.4638 52.3255 45.4638 51.3186 45.4638C51.1187 45.4594 50.9063 45.4532 50.7303 45.3485C50.5659 45.2226 50.4877 45.0249 50.4264 44.836C49.9501 43.3045 49.4969 41.7659 49.0063 40.2398C46.247 40.2282 43.4869 40.2282 40.7276 40.2398C40.2744 41.6195 39.8665 43.0145 39.4302 44.3996C39.3253 44.7002 39.279 45.0425 39.0551 45.2856C38.8419 45.4904 38.5273 45.4612 38.2562 45.4638C37.2432 45.4558 36.2292 45.4806 35.2171 45.4504C34.9034 45.3937 34.8429 45.0052 34.9478 44.7544C37.2805 37.598 39.6132 30.4416 41.9459 23.2862C42.0864 22.8703 42.2036 22.4357 42.4552 22.0704C42.6648 21.7608 43.0213 21.5879 43.3749 21.4992ZM44.7515 26.0512C44.1979 27.9364 43.6904 29.836 43.1386 31.723C42.6648 33.3769 42.1708 35.0255 41.7087 36.6828C43.7925 36.6855 45.8774 36.6855 47.9612 36.6828C47.4209 34.8126 46.8603 32.9477 46.3128 31.0792C45.8329 29.4085 45.3744 27.7316 44.891 26.0617C44.8563 26.0591 44.7861 26.0539 44.7515 26.0512Z" fill="#2550DA"/>
<path fill-rule="evenodd" clip-rule="evenodd" d="M40.912 6.59336C41.6101 6.64053 42.2701 6.90059 42.9113 7.15947C43.6814 7.47413 44.4315 7.85313 45.1257 8.31494C45.7453 8.67158 46.3377 9.08244 46.8723 9.55636C47.5464 10.0627 48.146 10.6575 48.7761 11.2151C48.927 11.3896 49.1005 11.5419 49.2657 11.7025C49.6176 12.1329 50.0392 12.4986 50.387 12.9324C50.9848 13.576 51.5035 14.2869 52.0727 14.9549C52.8498 15.9815 53.6102 17.0222 54.3261 18.0918C54.6124 18.5449 54.9083 18.9922 55.2056 19.4381C55.3129 19.6412 55.4192 19.8456 55.5463 20.0378C55.8985 20.5845 56.1881 21.1685 56.5223 21.7258C57.2992 22.95 58.0068 24.2166 58.6713 25.5048C59.319 26.833 59.9735 28.163 60.4828 29.5518C60.9099 30.5296 61.2376 31.5468 61.5594 32.5641C62.1487 34.5966 62.5822 36.6974 62.5694 38.8215C62.5376 39.5503 62.5275 40.284 62.3685 40.9996C62.3031 41.5895 62.1122 42.1544 61.9744 42.7302C61.5381 44.1254 60.9093 45.4669 60.0732 46.6719C59.3855 47.7211 58.5516 48.6642 57.7016 49.584C57.1775 50.1528 56.6059 50.6741 56.0445 51.205C55.7136 51.4766 55.3971 51.7642 55.0801 52.0508C54.3526 52.583 53.6994 53.2116 52.9518 53.7171C52.1039 54.3636 51.2191 54.9575 50.3409 55.5608C49.9628 55.7551 49.6325 56.0253 49.2667 56.2402C48.4919 56.718 47.6959 57.1613 46.904 57.6077C44.473 59.1437 41.8919 60.4317 39.2249 61.5045C38.7112 61.669 38.2397 61.9423 37.7135 62.0744C36.9868 62.3742 36.2181 62.5542 35.4741 62.8074C34.7522 63.0059 34.0135 63.1356 33.2834 63.2982C32.7241 63.4042 32.1607 63.4829 31.5952 63.546C31.217 63.6255 30.8309 63.6064 30.4472 63.6215C29.7282 63.6555 29.0063 63.6036 28.288 63.552C28.115 63.5368 27.9485 63.4837 27.7768 63.4599C26.9521 63.4051 26.1932 63.0535 25.4361 62.7561C24.7504 62.4444 24.0842 62.0931 23.4544 61.6787C22.9617 61.3978 22.5303 61.0225 22.0568 60.7116C21.8402 60.4947 21.582 60.3259 21.347 60.1301C20.6811 59.5419 20.0152 58.9512 19.3938 58.3162C19.0647 57.9133 18.6664 57.5727 18.3419 57.1671C17.9713 56.7586 17.6123 56.341 17.2798 55.9011C16.6936 55.2194 16.1646 54.4914 15.6221 53.7743C15.3553 53.3615 15.0372 52.9843 14.7807 52.5649C14.321 51.9329 13.9261 51.2588 13.4833 50.6151C13.3987 50.4546 13.3166 50.2924 13.2181 50.1407C12.8655 49.5983 12.5729 49.0205 12.2472 48.463C11.326 46.9979 10.4736 45.4888 9.71623 43.933C9.13181 42.7238 8.56659 41.5018 8.10551 40.2397C7.87601 39.802 7.768 39.3187 7.5743 38.8666C7.08583 37.445 6.69093 35.9909 6.41982 34.5117C6.32178 33.8579 6.19092 33.2064 6.1773 32.5431C6.12891 32.2022 6.15846 31.8556 6.10382 31.5154C6.09161 31.3912 6.11291 31.2688 6.11782 31.1463C6.14179 30.3627 6.2099 29.5776 6.36793 28.809C6.40575 28.3725 6.56669 27.9612 6.65758 27.5354C6.69495 27.3393 6.804 27.1678 6.85105 26.9751C7.0434 26.2252 7.39885 25.5322 7.73584 24.839C8.00993 24.2787 8.37051 23.7691 8.70705 23.2457C9.33108 22.3225 10.0562 21.4705 10.8178 20.658C11.2734 20.1425 11.767 19.6637 12.2756 19.201C12.6128 18.8437 13.0143 18.5561 13.3694 18.2175C13.6996 17.8951 14.1011 17.658 14.4384 17.3437C15.3328 16.6014 16.2821 15.9279 17.2307 15.2573C17.5932 15.0251 17.9227 14.741 18.3069 14.5437C18.8228 14.2008 19.3329 13.8472 19.8735 13.5413C20.6464 13.0616 21.4659 12.6626 22.2295 12.1666C23.275 11.5302 24.3428 10.9287 25.4345 10.3739C25.8691 10.1866 26.2704 9.93253 26.7097 9.75343C27.3044 9.44924 27.9283 9.20931 28.5301 8.92169C29.2103 8.66504 29.8773 8.37504 30.5558 8.11401C30.8777 8.01476 31.1958 7.90357 31.5067 7.77298C32.4059 7.51573 33.2913 7.20523 34.2069 7.00496C34.6137 6.87467 35.041 6.84184 35.4562 6.74676C35.7652 6.69669 36.0689 6.61706 36.3789 6.56669C36.706 6.5092 37.041 6.53327 37.3677 6.47429C37.5047 6.44762 37.6438 6.44487 37.7827 6.44517L37.7932 6.44784C37.8527 6.44546 37.8981 6.44725 37.9511 6.44576C38.0032 6.44821 38.059 6.44628 38.1101 6.44569C38.1366 6.44465 38.1498 6.44502 38.1754 6.44383L38.1978 6.44212C38.2846 6.43395 38.3644 6.43194 38.4563 6.42585C38.6748 6.43833 38.8959 6.4182 39.1148 6.41553C39.7158 6.46054 40.3193 6.47555 40.912 6.59336V6.59336Z" stroke="#2550DA" stroke-width="1.2" stroke-miterlimit="22.9256"/>
<path d="M76.6485 55.3804L78.0172 51.9279H78.9284L76.8242 56.884C76.6825 57.2 76.5504 57.4247 76.4278 57.5582C76.3053 57.6889 76.1609 57.7897 75.9947 57.8605C75.8313 57.9286 75.6257 57.9627 75.3778 57.9627C75.1626 57.9627 75.025 57.9504 74.9651 57.9259L74.9896 57.3048L75.3614 57.3212C75.6475 57.3212 75.8599 57.1836 75.9988 56.9085L76.101 56.6961L76.2562 56.3324L74.2297 51.9279H75.1081L76.6485 55.3804Z" fill="#E4E9FA"/>
<path d="M83.5345 57.8769H82.7787V54.0811H80.7439V57.8769H79.984V53.456H83.5345V57.8769Z" fill="#E4E9FA"/>
<path d="M89.0682 55.7155C89.0682 56.3883 88.9143 56.9303 88.6065 57.3416C88.2987 57.7529 87.882 57.9586 87.3563 57.9586C86.8196 57.9586 86.3974 57.7883 86.0896 57.4478V59.5766H85.3338V53.456H86.0243L86.061 53.9463C86.3688 53.565 86.7965 53.3743 87.344 53.3743C87.8751 53.3743 88.2946 53.5745 88.6024 53.9749C88.9129 54.3753 89.0682 54.9323 89.0682 55.646V55.7155ZM88.3123 55.6297C88.3123 55.1312 88.2061 54.7376 87.9936 54.4489C87.7812 54.1601 87.4897 54.0158 87.1193 54.0158C86.6617 54.0158 86.3185 54.2187 86.0896 54.6245V56.7369C86.3157 57.14 86.6617 57.3416 87.1274 57.3416C87.4897 57.3416 87.7771 57.1986 87.9896 56.9126C88.2047 56.6239 88.3123 56.1962 88.3123 55.6297Z" fill="#E4E9FA"/>
<path d="M93.3475 57.8769C93.3039 57.7897 93.2685 57.6344 93.2413 57.4111C92.8899 57.7761 92.4704 57.9586 91.9829 57.9586C91.547 57.9586 91.1889 57.836 90.9083 57.5908C90.6305 57.343 90.4915 57.0297 90.4915 56.6511C90.4915 56.1908 90.6659 55.8339 91.0145 55.5806C91.3659 55.3246 91.8589 55.1966 92.4936 55.1966H93.229V54.8493C93.229 54.585 93.15 54.3753 92.9921 54.22C92.8341 54.0621 92.6012 53.9831 92.2934 53.9831C92.0237 53.9831 91.7976 54.0512 91.6151 54.1874C91.4326 54.3236 91.3414 54.4884 91.3414 54.6817H90.5814C90.5814 54.4611 90.6591 54.2487 90.8143 54.0444C90.9723 53.8373 91.1848 53.6739 91.4517 53.5541C91.7214 53.4342 92.0169 53.3743 92.3383 53.3743C92.8477 53.3743 93.2467 53.5023 93.5355 53.7584C93.8242 54.0117 93.974 54.3617 93.9849 54.8084V56.8431C93.9849 57.249 94.0367 57.5718 94.1402 57.8115V57.8769H93.3475ZM92.0932 57.3008C92.3302 57.3008 92.5549 57.2395 92.7673 57.1169C92.9798 56.9943 93.1337 56.835 93.229 56.6389V55.7318H92.6366C91.7105 55.7318 91.2474 56.0028 91.2474 56.5449C91.2474 56.7819 91.3264 56.9671 91.4844 57.1005C91.6424 57.234 91.8453 57.3008 92.0932 57.3008Z" fill="#E4E9FA"/>
<path d="M95.825 57.8769V53.456H97.5492C98.1376 53.456 98.5884 53.5595 98.9016 53.7665C99.2176 53.9708 99.3756 54.2718 99.3756 54.6695C99.3756 54.8738 99.3143 55.059 99.1917 55.2252C99.0691 55.3886 98.888 55.5139 98.6483 55.6011C98.9152 55.6637 99.1291 55.7863 99.2898 55.9688C99.4532 56.1513 99.5349 56.3692 99.5349 56.6225C99.5349 57.0284 99.3851 57.3389 99.0855 57.5541C98.7886 57.7693 98.3677 57.8769 97.823 57.8769H95.825ZM96.5809 55.9361V57.2681H97.8311C98.1471 57.2681 98.3827 57.2095 98.538 57.0924C98.696 56.9753 98.775 56.8105 98.775 56.598C98.775 56.1567 98.4508 55.9361 97.8025 55.9361H96.5809ZM96.5809 55.3314H97.5574C98.2656 55.3314 98.6197 55.1244 98.6197 54.7103C98.6197 54.2963 98.2847 54.0825 97.6146 54.0689H96.5809V55.3314Z" fill="#E4E9FA"/>
<path d="M104.746 53.456V57.8769H103.986V54.0811H102.482L102.392 55.7359C102.343 56.4958 102.215 57.0393 102.008 57.3661C101.804 57.693 101.479 57.8632 101.032 57.8769H100.729V57.2109L100.946 57.1945C101.191 57.1673 101.367 57.0256 101.473 56.7696C101.579 56.5136 101.647 56.0396 101.677 55.3477L101.759 53.456H104.746Z" fill="#E4E9FA"/>
<path d="M108.38 57.9586C107.78 57.9586 107.293 57.7625 106.917 57.3702C106.541 56.9753 106.353 56.4482 106.353 55.789V55.6501C106.353 55.2115 106.436 54.8207 106.602 54.4775C106.771 54.1315 107.005 53.8619 107.305 53.6685C107.607 53.4723 107.934 53.3743 108.286 53.3743C108.86 53.3743 109.307 53.5636 109.626 53.9422C109.944 54.3208 110.104 54.8629 110.104 55.5684V55.883H107.109C107.12 56.3188 107.246 56.6715 107.489 56.9412C107.734 57.2081 108.045 57.3416 108.42 57.3416C108.687 57.3416 108.913 57.2871 109.099 57.1782C109.284 57.0692 109.446 56.9249 109.585 56.7451L110.047 57.1046C109.676 57.6739 109.12 57.9586 108.38 57.9586ZM108.286 53.9953C107.981 53.9953 107.724 54.107 107.517 54.3304C107.31 54.551 107.182 54.8615 107.133 55.2619H109.348V55.2047C109.326 54.8207 109.223 54.5238 109.037 54.314C108.852 54.1016 108.602 53.9953 108.286 53.9953Z" fill="#E4E9FA"/>
<path d="M115.18 57.8769H114.424V55.9892H112.393V57.8769H111.633V53.456H112.393V55.3722H114.424V53.456H115.18V57.8769Z" fill="#E4E9FA"/>
<path d="M119.843 53.456H120.599V57.8769H119.843V54.6531L117.804 57.8769H117.049V53.456H117.804V56.6838L119.843 53.456Z" fill="#E4E9FA"/>
<path d="M124.233 57.9586C123.634 57.9586 123.146 57.7625 122.77 57.3702C122.394 56.9753 122.206 56.4482 122.206 55.789V55.6501C122.206 55.2115 122.289 54.8207 122.456 54.4775C122.624 54.1315 122.859 53.8619 123.158 53.6685C123.461 53.4723 123.787 53.3743 124.139 53.3743C124.714 53.3743 125.16 53.5636 125.479 53.9422C125.798 54.3208 125.957 54.8629 125.957 55.5684V55.883H122.962C122.973 56.3188 123.1 56.6715 123.342 56.9412C123.587 57.2081 123.898 57.3416 124.274 57.3416C124.541 57.3416 124.767 57.2871 124.952 57.1782C125.137 57.0692 125.299 56.9249 125.438 56.7451L125.9 57.1046C125.529 57.6739 124.974 57.9586 124.233 57.9586ZM124.139 53.9953C123.834 53.9953 123.578 54.107 123.371 54.3304C123.164 54.551 123.036 54.8615 122.987 55.2619H125.201V55.2047C125.179 54.8207 125.076 54.5238 124.891 54.314C124.705 54.1016 124.455 53.9953 124.139 53.9953Z" fill="#E4E9FA"/>
<path d="M133.817 55.7155C133.817 56.3883 133.663 56.9303 133.355 57.3416C133.048 57.7529 132.631 57.9586 132.105 57.9586C131.568 57.9586 131.146 57.7883 130.838 57.4478V59.5766H130.083V53.456H130.773L130.81 53.9463C131.118 53.565 131.545 53.3743 132.093 53.3743C132.624 53.3743 133.043 53.5745 133.351 53.9749C133.662 54.3753 133.817 54.9323 133.817 55.646V55.7155ZM133.061 55.6297C133.061 55.1312 132.955 54.7376 132.742 54.4489C132.53 54.1601 132.239 54.0158 131.868 54.0158C131.41 54.0158 131.067 54.2187 130.838 54.6245V56.7369C131.065 57.14 131.41 57.3416 131.876 57.3416C132.239 57.3416 132.526 57.1986 132.738 56.9126C132.954 56.6239 133.061 56.1962 133.061 55.6297Z" fill="#E4E9FA"/>
<path d="M137.202 57.9586C136.602 57.9586 136.115 57.7625 135.739 57.3702C135.363 56.9753 135.175 56.4482 135.175 55.789V55.6501C135.175 55.2115 135.258 54.8207 135.424 54.4775C135.593 54.1315 135.827 53.8619 136.127 53.6685C136.429 53.4723 136.756 53.3743 137.108 53.3743C137.682 53.3743 138.129 53.5636 138.448 53.9422C138.766 54.3208 138.926 54.8629 138.926 55.5684V55.883H135.931C135.942 56.3188 136.068 56.6715 136.311 56.9412C136.556 57.2081 136.867 57.3416 137.242 57.3416C137.509 57.3416 137.735 57.2871 137.921 57.1782C138.106 57.0692 138.268 56.9249 138.407 56.7451L138.869 57.1046C138.498 57.6739 137.942 57.9586 137.202 57.9586ZM137.108 53.9953C136.802 53.9953 136.546 54.107 136.339 54.3304C136.132 54.551 136.004 54.8615 135.955 55.2619H138.17V55.2047C138.148 54.8207 138.045 54.5238 137.859 54.314C137.674 54.1016 137.424 53.9953 137.108 53.9953Z" fill="#E4E9FA"/>
<path d="M144.006 57.8769H143.25V54.0811H141.215V57.8769H140.455V53.456H144.006V57.8769Z" fill="#E4E9FA"/>
<path d="M147.252 56.7696L148.281 53.456H149.09L147.313 58.5592C147.038 59.2946 146.601 59.6624 146.001 59.6624L145.858 59.6501L145.576 59.597V58.9841L145.781 59.0005C146.037 59.0005 146.235 58.9487 146.377 58.8452C146.522 58.7417 146.64 58.5524 146.733 58.2773L146.9 57.8278L145.323 53.456H146.148L147.252 56.7696Z" fill="#E4E9FA"/>
<path d="M153.639 54.0689H152.156V57.8769H151.4V54.0689H149.946V53.456H153.639V54.0689Z" fill="#E4E9FA"/>
<path d="M157.624 57.8769C157.581 57.7897 157.545 57.6344 157.518 57.4111C157.167 57.7761 156.747 57.9586 156.26 57.9586C155.824 57.9586 155.466 57.836 155.185 57.5908C154.907 57.343 154.768 57.0297 154.768 56.6511C154.768 56.1908 154.943 55.8339 155.291 55.5806C155.643 55.3246 156.136 55.1966 156.77 55.1966H157.506V54.8493C157.506 54.585 157.427 54.3753 157.269 54.22C157.111 54.0621 156.878 53.9831 156.57 53.9831C156.3 53.9831 156.074 54.0512 155.892 54.1874C155.709 54.3236 155.618 54.4884 155.618 54.6817H154.858C154.858 54.4611 154.936 54.2487 155.091 54.0444C155.249 53.8373 155.461 53.6739 155.728 53.5541C155.998 53.4342 156.294 53.3743 156.615 53.3743C157.124 53.3743 157.523 53.5023 157.812 53.7584C158.101 54.0117 158.251 54.3617 158.262 54.8084V56.8431C158.262 57.249 158.313 57.5718 158.417 57.8115V57.8769H157.624ZM156.37 57.3008C156.607 57.3008 156.832 57.2395 157.044 57.1169C157.257 56.9943 157.41 56.835 157.506 56.6389V55.7318H156.913C155.987 55.7318 155.524 56.0028 155.524 56.5449C155.524 56.7819 155.603 56.9671 155.761 57.1005C155.919 57.234 156.122 57.3008 156.37 57.3008Z" fill="#E4E9FA"/>
<path d="M160.098 53.456H160.858V57.2599H162.892V53.456H163.648V57.2599H164.175L164.102 59.1884H163.423V57.8769H160.098V53.456Z" fill="#E4E9FA"/>
<path d="M168.438 53.456H169.194V57.8769H168.438V54.6531L166.399 57.8769H165.644V53.456H166.399V56.6838L168.438 53.456Z" fill="#E4E9FA"/>
<path d="M172.828 57.9586C172.229 57.9586 171.741 57.7625 171.365 57.3702C170.989 56.9753 170.801 56.4482 170.801 55.789V55.6501C170.801 55.2115 170.884 54.8207 171.051 54.4775C171.219 54.1315 171.454 53.8619 171.753 53.6685C172.056 53.4723 172.383 53.3743 172.734 53.3743C173.309 53.3743 173.755 53.5636 174.074 53.9422C174.393 54.3208 174.552 54.8629 174.552 55.5684V55.883H171.557C171.568 56.3188 171.695 56.6715 171.937 56.9412C172.182 57.2081 172.493 57.3416 172.869 57.3416C173.136 57.3416 173.362 57.2871 173.547 57.1782C173.732 57.0692 173.894 56.9249 174.033 56.7451L174.495 57.1046C174.124 57.6739 173.569 57.9586 172.828 57.9586ZM172.734 53.9953C172.429 53.9953 172.173 54.107 171.966 54.3304C171.759 54.551 171.631 54.8615 171.582 55.2619H173.796V55.2047C173.774 54.8207 173.671 54.5238 173.486 54.314C173.3 54.1016 173.05 53.9953 172.734 53.9953Z" fill="#E4E9FA"/>
<path d="M178.876 53.456H179.632V57.8769H178.876V54.6531L176.838 57.8769H176.082V53.456H176.838V56.6838L178.876 53.456ZM179.081 51.8462C179.081 52.1758 178.968 52.4414 178.742 52.6429C178.518 52.8418 178.224 52.9412 177.859 52.9412C177.494 52.9412 177.198 52.8404 176.972 52.6388C176.746 52.4373 176.633 52.1731 176.633 51.8462H177.25C177.25 52.0369 177.302 52.1867 177.405 52.2956C177.509 52.4019 177.66 52.455 177.859 52.455C178.05 52.455 178.198 52.4019 178.304 52.2956C178.413 52.1894 178.468 52.0396 178.468 51.8462H179.081Z" fill="#E4E9FA"/>
</svg>
