<svg width="181" height="267" viewBox="0 0 181 267" fill="none" xmlns="http://www.w3.org/2000/svg">
<path d="M77.4118 188.363C80.3776 193.844 83.2723 211.099 77.5888 220.943C71.9058 230.786 63.517 227.367 57.2555 238.213C57.2555 238.213 56.8167 229.156 63.5419 223.075C63.5419 223.075 54.7276 224.017 48.0858 235.521C41.4445 247.024 28.2338 249.433 21.5806 249.031C21.5806 249.031 35.4835 246.637 33.1136 227.526C31.4448 214.083 25.8849 206.484 34.8466 193.91C34.8466 193.91 23.8251 200.959 23.7736 210.312C23.7736 210.312 19.8623 192.033 37.8698 179.486C55.8777 166.939 71.7765 177.944 77.4118 188.363Z" fill="#FFB806"/>
<path d="M36.2952 96.0168C36.3804 96.0196 36.4567 96.0425 36.5243 96.0828C36.5385 96.091 36.5506 96.1006 36.5637 96.1109C36.6288 96.1577 36.6897 96.2167 36.7379 96.2976C37.6373 97.8209 35.6545 104.571 35.5491 104.928L32.5626 112.453L27.9766 124.018L24.4363 132.942L20.999 129.958L31.1889 101.721C33.9942 97.4661 35.5263 95.9888 36.2952 96.0168Z" fill="#305FC2"/>
<path d="M41.478 112.529L41.4794 112.531L44.5133 105.044L44.5017 105.038C44.4025 104.981 46.6444 98.0031 45.8225 96.5414C45.7233 96.3639 45.5833 96.266 45.3916 96.2689L36.7665 96.399C36.7721 96.3982 36.7763 96.402 36.7822 96.4028C36.8639 96.4037 36.9372 96.4236 37.0018 96.4608C37.0153 96.4686 37.0255 96.4798 37.0384 96.4886C37.0999 96.5333 37.1561 96.5895 37.2006 96.6681C38.0303 98.1474 35.9799 104.838 35.8721 105.189L35.8756 105.19L24.5943 133.034L33.2277 132.9L41.478 112.529Z" fill="#1E3595"/>
<path d="M32.3846 112.666L66.3081 115.496L68.2592 115.657L53.0149 150.695L52.1198 149.76L34.0006 130.879L27.7111 124.33L32.3846 112.666Z" fill="#9EAAD4"/>
<path d="M60.3746 190.015C71.2697 196.305 81.9231 198.25 84.1696 194.359C86.4162 190.468 79.4051 182.214 68.51 175.924C57.6149 169.633 46.9615 167.689 44.715 171.58C42.4685 175.471 49.4795 183.724 60.3746 190.015Z" fill="#1E3595"/>
<path d="M89.6675 158.765C86.8814 156.464 83.8237 153.639 80.6717 150.206C79.6202 149.063 78.5599 147.851 77.4949 146.57C73.2548 141.472 68.9557 135.264 64.9992 127.765C63.6799 125.266 55.9938 130.349 55.9938 130.349C45.7324 148.122 44.7043 171.441 44.4833 172.399C46.9127 176.189 50.7674 176.174 55.7829 182.207C57.6455 184.449 59.7015 186.807 61.9605 189.259C64.221 191.714 70.0725 193.511 70.0725 193.511L84.1061 194.883C84.1061 194.883 105.043 179.898 113.73 164.852C113.73 164.854 93.3862 161.828 89.6675 158.765Z" fill="#1E3595"/>
<path d="M163.782 42.8091C163.782 42.8091 135.107 25.9853 134.615 24.9575C113.23 42.7962 82.0401 74.2684 61.0806 119.029L56.1594 129.04C57.3888 131.83 114.657 162.814 114.657 162.814C142.471 124.159 158.348 78.9323 163.782 42.8091Z" fill="white"/>
<path d="M107.289 219.396L107.289 219.397C105.872 219.387 103.183 221.782 103.014 221.935L98.6491 227.143L97.5387 169.033L106.324 168.948L107.288 219.394L107.27 219.392C107.278 219.391 107.284 219.395 107.289 219.396Z" fill="#3974D4"/>
<path d="M103.197 222.392C103.369 222.241 106.077 219.853 107.514 219.873C107.524 219.876 107.531 219.877 107.541 219.878C107.658 219.88 107.763 219.905 107.86 219.944C107.891 219.957 107.922 219.971 107.951 219.988C108.057 220.051 108.154 220.129 108.224 220.251C108.734 221.131 108.147 223.748 105.032 229.814L88.5422 247.611L86.8479 241.786L92.0565 235.606L98.8107 227.597L103.197 222.392Z" fill="#305FC2"/>
<path d="M116.973 220.305C116.817 220.035 116.562 219.923 116.25 219.924L107.403 219.952L107.385 219.949C107.392 219.95 107.398 219.953 107.403 219.955C107.413 219.955 107.42 219.961 107.43 219.961C107.546 219.963 107.651 219.987 107.746 220.027C107.778 220.039 107.808 220.053 107.837 220.07C107.942 220.132 108.039 220.21 108.109 220.331C108.615 221.208 108.03 223.814 104.926 229.857L88.5071 247.59L97.3742 247.563L113.792 229.83C116.896 223.787 117.48 221.181 116.973 220.305Z" fill="#1E3595"/>
<path d="M76.8723 191.813L97.4042 168.807L98.7422 227.694L91.9355 235.792L76.8723 191.813Z" fill="#9EAAD4"/>
<path d="M79.3569 157.136C95.4401 166.421 111.271 169.112 114.715 163.146C118.16 157.18 107.914 144.815 91.8312 135.53C75.748 126.244 59.9175 123.553 56.4728 129.52C53.0281 135.486 63.2737 147.85 79.3569 157.136Z" fill="white"/>
<path opacity="0.3" d="M163.547 43.1863C163.547 43.1863 155.022 38.1846 147.183 33.4662C146.249 35.5942 136.783 77.4715 133.66 85.3929C128.734 97.8868 123.209 110.393 115.473 121.434C105.57 135.568 91.4672 149.317 72.4685 144.783C65.5008 143.12 59.6859 138.874 55.5216 133.337C56.8125 139.906 66.0089 149.429 79.015 156.938C95.1832 166.273 111.107 168.96 114.582 162.941C142.346 124.384 158.162 79.2465 163.547 43.1863Z" fill="#CDCDD2"/>
<path d="M109.107 55.5605C101.825 58.9564 95.2727 68.2333 94.4749 76.29C93.6791 84.3479 98.9425 88.1283 106.224 84.7334C113.507 81.3376 120.049 72.0525 120.844 63.995C121.641 55.9383 116.391 52.1643 109.107 55.5605ZM113.976 58.704C114.086 58.7381 114.188 58.7887 114.295 58.8294C114.414 58.8743 114.538 58.9137 114.651 58.9686C114.756 59.0199 114.85 59.0861 114.949 59.1458C115.057 59.208 115.17 59.2655 115.273 59.3367C115.377 59.4132 115.471 59.5045 115.569 59.5879C115.655 59.6623 115.746 59.7273 115.827 59.8071C115.831 59.8104 115.834 59.8126 115.837 59.8169C117.042 61.0252 117.64 63.016 117.384 65.61C117.091 68.5795 115.735 71.776 113.783 74.5414C113.296 75.2331 112.771 75.897 112.216 76.5245C111.66 77.1524 111.075 77.7432 110.465 78.2845C109.857 78.828 109.228 79.323 108.581 79.7616C107.936 80.1982 107.273 80.58 106.604 80.891C104.926 81.6727 103.392 81.9392 102.098 81.7545C101.58 81.6801 101.1 81.5343 100.662 81.3198C99.3863 80.6938 98.4902 79.4814 98.103 77.7973C98.0936 77.7546 98.0798 77.7174 98.0704 77.6748C98.0546 77.6072 98.0509 77.532 98.0381 77.4635C97.8853 76.6323 97.846 75.702 97.9468 74.6691C98.2036 72.0757 99.27 69.3092 100.84 66.8069C101.512 65.7332 102.277 64.7101 103.11 63.7703C103.943 62.8304 104.844 61.9713 105.787 61.2321C106.73 60.4928 107.719 59.87 108.726 59.4019C109.397 59.0899 110.043 58.8598 110.661 58.7073C110.802 58.6732 110.934 58.6577 111.071 58.6306C111.233 58.6007 111.399 58.5607 111.558 58.541C111.688 58.5243 111.813 58.5248 111.942 58.5158C112.1 58.5031 112.261 58.4855 112.413 58.4844C112.415 58.4855 112.418 58.4847 112.421 58.4854C112.978 58.4837 113.497 58.5602 113.976 58.704Z" fill="#305FC2"/>
<path d="M114.636 58.6401C114.745 58.6739 114.844 58.7234 114.948 58.7635C115.07 58.8088 115.195 58.8513 115.311 58.9064C115.412 58.9565 115.502 59.0202 115.598 59.0772C115.711 59.1423 115.827 59.2 115.933 59.2743C116.036 59.3495 116.128 59.4394 116.225 59.5203C116.312 59.5946 116.406 59.6616 116.488 59.7433C116.491 59.7465 116.495 59.7488 116.498 59.753C117.705 60.9564 118.312 62.9316 118.071 65.4998C117.795 68.4397 116.461 71.5988 114.53 74.3277C114.048 75.0102 113.528 75.665 112.978 76.2836C112.428 76.9026 111.847 77.4848 111.243 78.0177C110.64 78.5527 110.015 79.0397 109.373 79.4707C108.731 79.8997 108.073 80.2744 107.407 80.5788C105.739 81.3442 104.212 81.5999 102.921 81.41C102.405 81.3336 101.925 81.1865 101.487 80.9717C100.212 80.3448 99.3128 79.139 98.9178 77.4687C98.9082 77.4264 98.8942 77.3895 98.8852 77.3462C98.8684 77.2801 98.8644 77.2056 98.8514 77.1377C98.6945 76.3136 98.6503 75.3917 98.7453 74.3692C98.9873 71.8016 100.036 69.0669 101.587 66.5967C102.251 65.5367 103.008 64.5273 103.833 63.6008C104.658 62.6743 105.552 61.8281 106.488 61.1009C107.424 60.3737 108.406 59.7621 109.408 59.3037C110.074 58.9983 110.718 58.7739 111.332 58.6261C111.47 58.594 111.6 58.5797 111.734 58.555C111.899 58.5229 112.066 58.4843 112.226 58.4652C112.354 58.4508 112.476 58.4502 112.6 58.4423C112.76 58.4323 112.923 58.4133 113.078 58.4137C113.08 58.4149 113.083 58.414 113.087 58.4147C113.64 58.4165 114.158 58.4951 114.636 58.6401Z" fill="#9EAAD4"/>
<path d="M82.8655 91.4612C75.9901 95.6411 70.5389 105.578 70.6971 113.659C70.8553 121.744 76.5635 124.908 83.4374 120.729C90.3149 116.547 95.7543 106.604 95.5976 98.5218C95.4368 90.4399 89.7411 87.2788 82.8655 91.4612ZM88.1031 94.0384C88.218 94.0583 88.3236 94.0967 88.4358 94.1257C88.5601 94.159 88.688 94.1838 88.8092 94.2246C88.9199 94.2633 89.0217 94.3195 89.1288 94.3667C89.2443 94.4175 89.3633 94.4623 89.4736 94.5221C89.5873 94.5851 89.6929 94.6646 89.8009 94.7375C89.8952 94.7999 89.9951 94.8549 90.0832 94.9257C90.0872 94.928 90.0911 94.9303 90.0961 94.9331C91.4417 96.0004 92.2757 97.9084 92.3272 100.51C92.3861 103.491 91.4092 106.812 89.786 109.774C89.3793 110.515 88.9325 111.234 88.4521 111.917C87.9717 112.601 87.4582 113.251 86.914 113.859C86.3711 114.464 85.799 115.026 85.2043 115.534C84.6102 116.04 83.9952 116.49 83.3622 116.875C81.7765 117.838 80.2781 118.274 78.9617 118.232C78.4341 118.218 77.9385 118.125 77.476 117.962C76.1267 117.482 75.0862 116.379 74.5024 114.749C74.487 114.71 74.4673 114.673 74.4534 114.634C74.4319 114.568 74.4166 114.494 74.3951 114.429C74.1465 113.621 73.9955 112.701 73.9761 111.665C73.924 109.065 74.6626 106.201 75.9357 103.542C76.4805 102.402 77.123 101.303 77.8444 100.277C78.5663 99.2497 79.3638 98.2995 80.2198 97.46C81.0757 96.6205 81.9895 95.8952 82.9396 95.3169C83.5732 94.931 84.1927 94.6311 84.7903 94.4126C84.9269 94.3629 85.0595 94.3294 85.193 94.2898C85.3526 94.2414 85.5118 94.1822 85.6677 94.1449C85.796 94.1143 85.9217 94.0994 86.0495 94.0764C86.2058 94.0473 86.3648 94.0092 86.5161 93.9958C86.5192 93.9949 86.5229 93.9931 86.5245 93.9927C87.0789 93.9309 87.6085 93.9464 88.1031 94.0384Z" fill="#305FC2"/>
<path d="M88.7626 93.9806C88.8753 93.9998 88.9792 94.0388 89.0893 94.0671C89.2153 94.1019 89.3455 94.1273 89.4686 94.1696C89.574 94.2082 89.6735 94.2617 89.7739 94.3066C89.8964 94.359 90.0183 94.4058 90.1325 94.4678C90.2443 94.5297 90.3479 94.6079 90.453 94.6791C90.5494 94.7425 90.6512 94.7987 90.7415 94.8705C90.7454 94.8727 90.7494 94.875 90.7543 94.8779C92.1017 95.9424 92.9436 97.8367 93.0095 100.414C93.0849 103.367 92.1295 106.65 90.528 109.574C90.1267 110.306 89.6853 111.016 89.2103 111.69C88.7352 112.365 88.2269 113.006 87.6879 113.604C87.15 114.201 86.5829 114.754 85.9929 115.254C85.4035 115.752 84.7929 116.194 84.164 116.572C82.5887 117.517 81.0975 117.94 79.785 117.891C79.2589 117.874 78.7644 117.78 78.3024 117.615C76.9547 117.133 75.9113 116.034 75.3203 114.417C75.3047 114.378 75.2854 114.341 75.2707 114.302C75.249 114.237 75.2333 114.164 75.2115 114.099C74.9592 113.298 74.8035 112.386 74.7784 111.36C74.712 108.784 75.4322 105.951 76.6865 103.325C77.2232 102.199 77.8576 101.114 78.5709 100.102C79.2849 99.0887 80.0746 98.1521 80.9232 97.3254C81.7718 96.4987 82.6786 95.7855 83.6225 95.218C84.252 94.8393 84.8679 94.5458 85.4623 94.3327C85.5957 94.2841 85.725 94.2541 85.8568 94.215C86.0162 94.167 86.1781 94.11 86.3364 94.0731C86.462 94.0448 86.5848 94.0306 86.7095 94.0084C86.8662 93.9811 87.0269 93.9443 87.1813 93.9301C87.1844 93.9293 87.1881 93.9275 87.1897 93.9271C87.741 93.8684 88.269 93.8867 88.7626 93.9806Z" fill="#9EAAD4"/>
<path d="M165.034 8.70162C165.034 8.70162 149.097 13.8464 135.444 25.28C145.701 39.3817 164.133 42.8416 164.133 42.8416C167.225 30.8595 165.019 8.80071 165.034 8.70162Z" fill="#FFB806"/>
<path d="M164.989 8.67618C164.989 8.67618 155.363 11.8289 150.1 15.0795C150.047 16.0697 150.082 27.1934 147.234 35.9714C152.128 39.0347 159.186 41.9049 164.145 42.8208C167.223 30.8418 164.974 8.77526 164.989 8.67618Z" fill="#B68503"/>
</svg>
