<svg width="604" height="408" viewBox="0 0 604 408" fill="none" xmlns="http://www.w3.org/2000/svg">
<path fill-rule="evenodd" clip-rule="evenodd" d="M602.469 198.939C627.392 245.676 692.251 276.172 685.718 330.064C679.169 384.089 624.18 428.872 571.323 455.866C523.97 480.049 469.419 472.175 417.989 466.793C377.431 462.548 177.127 427.728 137.585 429.915C126.845 430.509 71.8867 415.973 74.1163 407.998C90.6537 407.889 124.654 350.661 146.725 328.119C168.796 305.576 206.167 295.46 213.32 260.868C222.179 218.029 229.404 155.094 266.196 126.205C302.817 97.4509 353.889 104.774 399.816 96.3006C450.656 86.9202 505.86 52.0599 549.168 73.9945C592.449 95.915 580.61 157.948 602.469 198.939Z" fill="white"/>
</svg>
