<svg width="24" height="14" viewBox="0 0 24 14" fill="none" xmlns="http://www.w3.org/2000/svg">
<path fill-rule="evenodd" clip-rule="evenodd" d="M13.832 12.8687C13.6102 13.0984 13.177 13.1448 13.177 13.1448H11.7426C11.7426 13.1448 8.57784 13.3281 5.79 10.5307C2.74978 7.47856 0.065154 1.42301 0.065154 1.42301C0.065154 1.42301 -0.0897205 1.02579 0.078092 0.834548C0.267092 0.618446 0.782436 0.60482 0.782436 0.60482L4.21115 0.583366C4.21115 0.583366 4.53403 0.634284 4.76522 0.798363C4.95656 0.934175 5.06344 1.18656 5.06344 1.18656C5.06344 1.18656 5.6175 2.53777 6.35109 3.75989C7.78434 6.14659 8.45109 6.6683 8.93709 6.41251C9.64612 6.04025 9.43359 3.03903 9.43359 3.03903C9.43359 3.03903 9.44653 1.95042 9.07678 1.4649C8.79037 1.08923 8.25037 0.979384 8.01206 0.948907C7.81837 0.923954 8.13534 0.491658 8.54616 0.298207C9.16359 0.00733906 10.253 -0.00960363 11.5406 0.00282662C12.5443 0.012955 12.8331 0.0729878 13.2251 0.164603C14.1351 0.376286 14.1067 1.0547 14.0453 2.51889C14.027 2.95681 14.0057 3.46488 14.0057 4.05187C14.0057 4.18381 14.0017 4.32441 13.9976 4.46906C13.9763 5.21911 13.952 6.07809 14.4647 6.39787C14.7277 6.56075 15.3697 6.42162 16.9767 3.79157C17.7385 2.54449 18.309 1.07901 18.309 1.07901C18.309 1.07901 18.4346 0.817607 18.6283 0.705551C18.8267 0.591285 19.0943 0.626365 19.0943 0.626365L22.7027 0.60482C22.7027 0.60482 23.7874 0.479228 23.9622 0.952314C24.1465 1.44676 23.5573 2.60333 22.0829 4.49779C20.6843 6.2953 20.0038 6.95705 20.0662 7.54237C20.1119 7.97007 20.5543 8.35688 21.4033 9.11604C23.1755 10.7024 23.6506 11.537 23.7647 11.7375C23.7742 11.7541 23.7811 11.7664 23.7862 11.7744C24.5809 13.0452 22.9046 13.1448 22.9046 13.1448L19.6988 13.1878C19.6988 13.1878 19.011 13.3191 18.1048 12.7193C17.6301 12.4054 17.1662 11.8927 16.7244 11.4043C16.0496 10.6585 15.4264 9.96959 14.8943 10.1323C14.001 10.4062 14.028 12.261 14.028 12.261C14.028 12.261 14.035 12.6582 13.832 12.8687Z" fill="#E4E9FA"/>
</svg>
