<svg width="39" height="53" viewBox="0 0 39 53" fill="none" xmlns="http://www.w3.org/2000/svg">
<path d="M19.2449 37.8021L16.2881 36.4336L9.12802 52H12.6958L19.2449 37.8021Z" fill="#AEC5FF" stroke="#2550DA" stroke-miterlimit="10"/>
<path d="M20.3935 37.8021L23.3504 36.4336L30.5348 52H26.9426L20.3935 37.8021Z" fill="#AEC5FF" stroke="#2550DA" stroke-miterlimit="10"/>
<path d="M21.6398 1H18.3896V51.9756H21.6398V1Z" fill="#AEC5FF" stroke="#2550DA" stroke-miterlimit="10"/>
<path d="M36.693 6.27832H2.23682V40.539H36.693V6.27832Z" fill="white" stroke="#2550DA" stroke-miterlimit="10"/>
<path d="M21 11V22H32C32 15.9288 27.0712 11 21 11Z" fill="#2550DA" stroke="#2550DA" stroke-miterlimit="10"/>
<path d="M18.2806 12.2379V24.435V24.6588L18.4475 24.8079L18.7806 24.435L18.4476 24.8079L18.4477 24.8081L18.4484 24.8087L18.451 24.811L18.4614 24.8203L18.5025 24.8571L18.663 25.0006C18.8035 25.1264 19.0093 25.3108 19.2707 25.5453C19.7936 26.0143 20.5385 26.6837 21.427 27.4852C23.1082 29.0017 25.3026 30.9905 27.478 32.9891C25.2664 35.244 22.1934 36.6423 18.7806 36.6423C12.0434 36.6423 6.57339 31.1723 6.57339 24.435C6.57339 17.8652 11.7748 12.5005 18.2806 12.2379Z" fill="#AEC5FF" stroke="#2550DA"/>
<path d="M22 24C22 24 25.8077 27.5501 29.4038 31C31.0192 29.1547 32 26.6877 32 24H22Z" fill="white" stroke="#2550DA" stroke-miterlimit="10"/>
<path d="M38.2082 5.15429C38.2082 6.02669 37.5034 6.73144 36.631 6.73144H2.07714C1.20475 6.73144 0.5 6.02669 0.5 5.15429C0.5 4.2819 1.20475 3.57715 2.07714 3.57715H36.631C37.5034 3.57715 38.2082 4.2819 38.2082 5.15429Z" fill="#AEC5FF" stroke="#2550DA"/>
</svg>
