<svg width="51" height="51" viewBox="0 0 51 51" fill="none" xmlns="http://www.w3.org/2000/svg">
<rect x="1" y="1" width="49" height="49" rx="1" fill="#AEC5FF" stroke="#2550DA" stroke-width="2"/>
<path d="M13.746 25.922L14.834 22.522C15.616 20.04 16.33 17.592 17.044 15.008H17.18C17.894 17.592 18.608 20.04 19.39 22.522L20.444 25.922H13.746ZM23.3 35H26.292L18.744 12.696H15.548L8 35H10.89L13.032 28.2H21.158L23.3 35ZM27.5189 26.772C27.5189 32.178 31.0209 35.408 35.4409 35.408C37.6849 35.408 39.4529 34.626 40.8809 33.708L39.8949 31.872C38.6709 32.654 37.3449 33.164 35.7809 33.164C32.6189 33.164 30.4769 30.92 30.2729 27.35H41.4249C41.4929 26.942 41.5269 26.398 41.5269 25.82C41.5269 21.094 39.1469 18.068 34.9309 18.068C31.1569 18.068 27.5189 21.366 27.5189 26.772ZM30.2389 25.514C30.5789 22.182 32.6869 20.278 34.9989 20.278C37.5829 20.278 39.0789 22.148 39.0789 25.514H30.2389Z" fill="#2550DA"/>
</svg>
