<svg width="24" height="16" viewBox="0 0 24 16" fill="none" xmlns="http://www.w3.org/2000/svg">
<path fill-rule="evenodd" clip-rule="evenodd" d="M7.16699 0C8.97599 0.027495 10.2559 0.567547 11.0108 1.62152C11.4638 2.26873 11.691 3.04181 11.691 3.94378C11.691 4.87188 11.4638 5.62039 11.0052 6.18501C10.7483 6.50062 10.3716 6.79019 9.87346 7.05081C10.6298 7.33454 11.1999 7.78187 11.588 8.39436C11.9718 9.0053 12.1651 9.74941 12.1651 10.6239C12.1651 11.5259 11.945 12.3352 11.5033 13.0505C11.2239 13.5238 10.874 13.9235 10.4535 14.2478C9.98071 14.6198 9.42337 14.8732 8.77846 15.0122C8.13356 15.1497 7.43653 15.2163 6.68296 15.2163H0V0H7.16699ZM6.18487 2.64225H2.95631V5.99966H6.56306C7.20515 5.99966 7.72865 5.87369 8.13224 5.62175C8.53302 5.36981 8.73477 4.92394 8.73477 4.28688C8.73477 3.57601 8.46946 3.1084 7.93893 2.87966C7.4789 2.72181 6.89465 2.64225 6.18487 2.64225ZM2.95631 8.5174H6.60824C7.24321 8.52316 7.73849 8.61003 8.09127 8.7751C8.72212 9.07189 9.03534 9.61477 9.03534 10.4082C9.03534 11.3434 8.71077 11.9747 8.06024 12.3077C7.70324 12.4858 7.20093 12.5756 6.55743 12.5756H2.95631V8.5174Z" fill="#E4E9FA"/>
<path fill-rule="evenodd" clip-rule="evenodd" d="M21.1312 4.19279C20.3664 3.84101 19.5071 3.66434 18.5518 3.66434C16.9445 3.66434 15.6393 4.18704 14.6303 5.22512C13.6242 6.26603 13.1204 7.76159 13.1204 9.71178C13.1204 11.7909 13.6764 13.2936 14.7954 14.2159C15.9088 15.1396 17.1971 15.6 18.6576 15.6C20.4258 15.6 21.8015 15.0527 22.7837 13.9597C23.413 13.2705 23.7686 12.5914 23.8462 11.9255H20.9182C20.7488 12.2556 20.5513 12.5133 20.327 12.7001C19.9191 13.0432 19.3871 13.2154 18.7367 13.2154C18.1186 13.2154 17.5923 13.0736 17.1548 12.7913C16.4323 12.3381 16.0541 11.5461 16.0061 10.4184H23.9973C24.0099 9.44687 23.9789 8.69983 23.9013 8.18434C23.7686 7.30265 23.478 6.52665 23.025 5.8578C22.5283 5.09915 21.8975 4.54321 21.1312 4.19279ZM18.5532 6.09229C17.8194 6.09229 17.2465 6.30659 16.8415 6.73511C16.4366 7.16372 16.1811 7.74423 16.0767 8.47685H21.0199C20.9676 7.69499 20.7108 7.10434 20.2565 6.69747C19.7964 6.29353 19.2305 6.09229 18.5532 6.09229Z" fill="#E4E9FA"/>
<path d="M21.6915 2.60315H15.3359V0.70941H21.6915V2.60315Z" fill="#E4E9FA"/>
</svg>
