<svg width="61" height="51" viewBox="0 0 61 51" fill="none" xmlns="http://www.w3.org/2000/svg">
<path d="M33.8563 42.2839L33.8563 42.284L33.8639 42.2889C34.9926 43.0179 35.8118 44.4437 36.2622 45.8746L36.2654 45.8845L36.2687 45.8943C36.6834 47.0946 36.8849 48.6439 36.9216 50.0062H18.8388H0.757774C0.800163 48.6569 1.01609 47.1186 1.41276 45.8827C1.89901 44.4256 2.72184 42.9284 3.84164 42.2052L3.84167 42.2052L3.8492 42.2002C5.94177 40.8127 8.31916 40.0257 10.7846 39.2096C11.2219 39.0648 11.6619 38.9192 12.1036 38.7691L12.1037 38.7692L12.1164 38.7646L12.1429 38.7551C12.8231 38.5102 13.5712 38.241 14.2685 37.8468L14.2716 37.8451C15.1769 37.3277 15.4191 36.325 15.5517 35.7416L15.5599 35.7053L15.5646 35.6684L15.6483 34.9986L15.687 34.6886L15.4942 34.4428C13.3829 31.7509 11.9426 27.0667 11.9426 23.2409C11.9426 20.3961 12.7422 18.7272 13.8878 17.7487C15.0565 16.7503 16.729 16.3447 18.7272 16.3447C20.7254 16.3447 22.3979 16.7503 23.5666 17.7487C24.7121 18.7272 25.5118 20.3961 25.5118 23.2409C25.5118 26.9277 24.1545 31.4544 22.1693 34.1544L22.0028 34.3808L22.0261 34.6609C22.0542 34.9974 22.0841 35.3309 22.1454 35.6987L22.1496 35.724L22.1556 35.7491L22.1578 35.7583C22.286 36.2971 22.53 37.3222 23.4243 37.8395C24.1288 38.2669 24.8836 38.5386 25.5596 38.7819L25.5891 38.7926L25.5891 38.7927L25.6019 38.797C25.93 38.9085 26.2575 39.0183 26.5838 39.1278C29.1606 39.9919 31.6675 40.8327 33.8563 42.2839Z" fill="#AEC5FF" stroke="#2550DA" stroke-width="1.5"/>
<path d="M59.8606 1.69777C59.8606 1.3908 59.6095 1.13965 59.3025 1.13965H30.699C30.392 1.13965 30.2804 1.3908 30.2804 1.69777V23.9388C30.2804 24.2457 30.392 24.6085 30.699 24.6085H36.308C36.615 24.6085 36.7825 24.8038 36.6429 25.0829L34.6895 29.7711C34.5779 30.0501 34.6616 30.106 34.8849 29.9106L47.3867 24.8038C47.6657 24.6922 48.1401 24.6364 48.4471 24.6364H59.3025C59.6095 24.6364 59.8606 24.2736 59.8606 23.9667V1.69777Z" fill="white"/>
<path d="M60 1.69765C60 1.39068 59.6093 1 59.3024 1H30.6988C30.3919 1 30.1407 1.39068 30.1407 1.69765V23.9387C30.1407 24.2456 30.3919 24.4689 30.6988 24.4689H36.3079C36.6149 24.4689 36.7823 24.72 36.6428 24.9991L34.6894 29.7152C34.5777 29.9942 34.6615 30.078 34.8847 29.8547L47.3865 24.6921C47.6656 24.5805 48.14 24.4689 48.447 24.4689H59.3024C59.6093 24.4689 60 24.2456 60 23.9387V1.69765Z" stroke="#2550DA" stroke-miterlimit="10"/>
<path d="M56.0932 6.30225H41.303V9.09284H56.0932V6.30225Z" fill="#AEC5FF" stroke="#2550DA" stroke-miterlimit="10"/>
<path d="M39.4892 6.1626H33.0708V9.23225H39.4892V6.1626Z" fill="#2550DA"/>
<path d="M56.0932 11.3252H33.2103V13.8367H56.0932V11.3252Z" fill="#AEC5FF" stroke="#2550DA" stroke-miterlimit="10"/>
<path d="M56.0932 16.0693H33.2103V18.5809H56.0932V16.0693Z" fill="#AEC5FF" stroke="#2550DA" stroke-miterlimit="10"/>
</svg>
