<svg width="903" height="580" viewBox="0 0 903 580" fill="none" xmlns="http://www.w3.org/2000/svg">
<path fill-rule="evenodd" clip-rule="evenodd" d="M858.692 281.205C894.013 347.302 986.382 390.189 976.798 466.577C967.19 543.152 888.532 606.873 813.001 645.378C745.337 679.874 667.562 668.986 594.226 661.612C536.393 655.798 250.842 607.448 194.427 610.741C179.104 611.635 100.78 591.311 104 580C127.59 579.765 176.371 498.516 207.965 466.469C239.559 434.422 292.916 419.906 303.29 370.86C316.136 310.121 326.751 220.918 379.375 179.807C431.754 138.888 504.57 149.013 570.123 136.782C642.69 123.242 721.606 73.5795 783.276 104.444C844.906 135.289 827.713 223.236 858.692 281.205Z" fill="white"/>
</svg>
